<?xml version="1.0" encoding="UTF-8"?>
<svg viewBox="0 0 100 101" xmlns="http://www.w3.org/2000/svg">
<rect y=".25" width="100" height="100" rx="50" fill="#F5F5D3"/>
<path d="m24.871 65.409c4.4058 2.1866-1.9368 14.858 4.615 15.172 58.517-0.8938 45.781 10.835 46.721-47.734 0.0162-2.1755-2.079-3.3373-4.0645-3.0469 0.6814-3.837-3.2256-4.4108-6.0938-4.0625 1.6809-8.3027-11.838-8.2976-10.156 0h-3.0469c1.6808-8.3027-11.838-8.2976-10.156 0h-3.0469c1.6809-8.3027-11.838-8.2976-10.156 0-2.3318-0.1178-6.1445-0.2518-6.0937 3.0469 0.5484 1.7002-1.4513 36.801 1.4787 36.624zm49.333-32.123c0.0691 0.8713 0.0646 1.7469-0.0132 2.6173-0.8095-0.2031-1.4422 0.5251-2.0485 0.9507v-1.0624c2.3654-0.0548 2.7828-2.8133 0-1.3914v-0.327c0.7538-0.0348 1.4766-0.3106 2.0617-0.7872zm-2.0617 4.4983c0.7074-0.0693 1.3876-0.3087 1.9825-0.6977-0.025 0.2805-0.0083 0.5632 0.0497 0.8388h-2.0312l-1e-3 -0.1411zm1.0156-5.9516c0.1688-0.0147 0.3379 0.0259 0.4818 0.1157 0.1437 0.0898 0.2545 0.2238 0.3155 0.3819-0.6561-0.1726-1.2899 0.4042-1.8119 0.7415v-1.2391h1.0146zm-1.0156 8.125h2.0312c-0.5575 54.218 8.6003 35.648-44.688 38.595-2.0648 0.3036-0.5931-8.6694-1.0135-9.5347 2.0891 1.494 6.2318 7.7137 9.1405 7.5024 44.296-0.0599 33.511 6.1851 34.531-36.562h-1e-3zm-40.625 24.375h6.0937v6.0938h-2.0312c0.3889-2.794-0.7556-6.1364-4.0625-6.0938zm2.0312 6.891-4.8598-4.8608c4.3846-0.4052 5.2082 0.5383 4.8608 4.8608h-1e-3zm24.375-47.517c0-2.471 3.4075-2.2709 5.0375-1.8231-4.5297 2.0567-3.0042 4.1468 0.9497 1.4504 0.083 0.3827 0.1305 0.7724 0.1421 1.1639-2.3928 0.5992-3.3312 3.0082-0.0121 1.369-0.0173 0.4124-0.0376 0.8095-0.0447 1.1599-1.1406 0.3179-1.6383 1.7398-0.0254 1.2319-0.3352 1.6849-2.5898 1.625-4.0158 1.5417-2.9169 0.0731-1.8433-4.3804-2.0313-6.0937zm-13.203 0c-0.0264-2.4974 3.8472-2.4497 5.3442-1.6128-3.8888 1.2238-2.9696 3.9812 0.6297 1.1883 0.0989 0.4368 0.1524 0.8826 0.1594 1.3304-0.4813 0.2296-1.2054 0.324-1.3588 0.9324-1.882 0.9049-1.0451 2.3999 0.6063 1.0156 0.2428 0.0454 0.494 0.0055 0.7109-0.1127-0.0131 0.3351-0.0244 0.6479-0.0193 0.9212-1.562 0.3594-2.7584 2.7767-0.2864 1.5213-0.715 1.0339-2.537 0.9812-3.7547 0.91-2.9169 0.0731-1.8434-4.3804-2.0313-6.0937zm-13.203 0c-0.063-2.5238 4.3265-2.6295 5.587-1.3467-4.3185 1.1933-3.4532 4.5266 0.46 1.2654 0.0614 0.4129 0.0913 0.8298 0.0894 1.2472-2.5858 0.8552-3.3343 3.6888-0.0254 1.1426-0.0183 0.4093-0.0356 0.7932-0.0386 1.1345-0.8937 0.26-1.6199 2.0231-0.1614 1.5244-0.6003 1.2574-2.5828 1.2015-3.8798 1.1274-2.9168 0.072-1.8433-4.3815-2.0312-6.0938v-1e-3zm-6.0938 5.0781c-0.068-1.6656 3.1708-0.8216 4.0625-1.0156-0.0761 5.59 10.234 5.59 10.156 0h3.0469c-0.0762 5.59 10.233 5.59 10.156 0h3.0469c-0.0762 5.59 10.234 5.59 10.156 0 5.7302-0.8095 3.7436 2.2161 4.0625 6.0937-14.576-0.2223-30.192 1.0522-44.688 0v-5.0781zm44.688 7.1094c-2.4314 46.048 12.789 38.096-32.499 38.594-0.5385-2e-4 -1.0551-0.2144-1.4359-0.5952-0.3809-0.3809-0.595-0.8973-0.5953-1.436 5.5453 1.2685 3.8289-4.9329 4.0625-8.125 0.1371-3.3343-6.3415-1.6423-8.125-2.0313-0.5386 6e-4 -1.0549 0.2147-1.4357 0.5955s-0.595 0.8972-0.5956 1.4358c-1.5549 0.0843-4.097 0.1645-4.0624-2.0313v-26.406h44.686z" fill="#D2D234"/>
<path d="m29.485 39.939c0.387 2.1928-1.0685 6.367 1.1812 7.4608 2.732-0.4052 8.3626 1.363 9.1183-2.2404-0.2225-2.4985 0.071-7.9026-3.569-7.4669-1.5488 0.3859-9.2817-0.7618-6.7305 2.2465zm2.9311-0.2874c5.9312-1.0745 6.3131-0.3971 5.529 5.586-2.0704 0.3538-4.1772 0.4447-6.2704 0.2701-0.189-1.9165-0.3423-3.7984-0.6378-5.7048 0.4611-0.072 0.9384-0.1016 1.3792-0.1513zm11.007-0.2245c0.1128 1.95-1.5793 7.4141 1.0867 7.6375 2.7321-0.9587 6.2685 0.5932 8.6074-0.846 0.0732-2.847-0.451-5.6778-1.5386-8.3098-2.3624-1.0106-5.2 0.1777-7.7167-0.3027-0.2141 0.0041-0.4209 0.0789-0.5879 0.213s-0.2849 0.3198-0.335 0.5281c-0.0502 0.2082-0.0298 0.4271 0.0577 0.6226 0.0877 0.1954 0.2376 0.3563 0.4264 0.4573zm2.4203-0.2376c1.6437-0.1942 3.297-0.2976 4.9521-0.3098 0.2672 1.9389 0.3353 3.9295 0.5342 5.8846-2.0273-0.2066-4.072-0.1732-6.0917 0.0995-0.0184-1.837-0.191-3.6691-0.5159-5.4773 0.3688-0.0911 0.7434-0.157 1.1213-0.197zm10.865 6.1536c-0.6642 3.9305 6.7437 1.9887 9.0654 1.7978 1.5408-1.6718 0.8411-8.4663-0.9983-9.7278-7.9564-1.3314-9.3702 0.0519-8.0671 7.93zm2.209 0.8349 0.061 0.1056c-0.0407 0.1087-0.061 0.0681-0.061-0.1056zm-0.5708-6.9702c1.963-0.3284 3.956-0.4415 5.9435-0.3372 0.3392 2.179 0.4376 4.3888 0.2935 6.5894-1.9094 0.0944-3.8117 0.134-5.7231 0.196-0.2945-2.1613-0.8196-4.2758-0.9698-6.4554 0.1509 0.0268 0.3041 0.0292 0.4559 0.0072zm-19.321 10.664c-1.8636-0.4023-8.5159-1.1437-8.6561 1.3578-0.064 1.9795-1.3223 8.253 1.2218 8.6471 2.1635-0.3919 4.3531-0.6217 6.5508-0.6876 3.1585-1.2005 3.0164-7.2688 0.8835-9.3173zm-0.6834 5.2304c-0.087 0.5991-0.2344 1.1877-0.4398 1.7571 4e-3 -0.0072-0.1097 0.1827-0.0508 0.0944-1.7164 0.5566-3.8452 0.1076-5.658 0.7181-0.1119-1.934-0.3208-3.8609-0.6257-5.7739 3.6035-0.3737 7.9625-2.3826 6.7743 3.2043zm27.294-6.2745c-1.6067-0.1493-8.0844-0.8674-7.0942 1.8708-1.3751 1.6168-0.6622 4.5957-0.8694 6.6645 0.324 2.8681 3.9752 1.236 5.8622 1.3365 1.5316 0.0173 3.3882-0.3676 3.4725-2.2211 0.1777-2.3593 1.0643-6.2867-1.3711-7.6507zm-0.4977 1.7672h0.0102c0.203-0.0194 0.0121 0.0741-0.0102 0zm-5.3838 6.5507c0.0091 0.0346 0.0345-0.0051 0 0zm5.4711-3.2672c-0.0454 0.8587-0.1736 1.7111-0.3828 2.5451-1.6906 0.1897-3.3859 0.333-5.0842 0.4296-0.188-1.9286 0.1878-4.0756-0.5891-5.8703 1.9368 0.0407 3.9893-0.5575 5.9535-0.3869 0.1526 1.0872 0.1876 2.1879 0.1026 3.2825zm-11.55 8.515c-8.3424-2.0282-10.335-0.1372-9.4078 8.2408 0.1625 3.8146 5.135 1.9763 7.5654 1.9926 2.205 0.2336 2.8437-1.7814 2.6041-3.6146-0.3779-2.0993 1.1811-5.1797-0.7617-6.6188zm-7.4801 8.4094c0.0249-0.0032 0.0502 0.0017 0.0722 0.0136 0.0221 0.0121 0.0398 0.0308 0.0507 0.0533-0.0382-0.0271-0.0795-0.0495-0.1229-0.0669zm6.3142-0.1453c-0.0691 0.0458-0.0285 0.0935 0 0zm0.6144-5.9505c-0.1327 1.9854-0.336 3.9654-0.6094 5.9363-2.0048 0.067-4.1163 0.6703-6.0928 0.2914 0.0204-2.4561-0.1929-4.9088-0.6368-7.3246 1.6688 0.2813 7.605-1.3447 7.339 1.0969zm10.234-2.8935c-1.1963 0.3036-5.9779-0.5667-4.5997 1.6382-0.7435 2.4517-1.0695 6.6421 0.9445 8.4347 2.8802 0.4227 5.8158 0.2663 8.6349-0.4601 1.2593-4.4708 1.6981-11.363-4.9797-9.6128zm3.9833 1.1202c0.7861 2.0973 0.1646 5.0283-0.0812 7.3358-2.1897-0.3727-4.4149 0.3038-6.6107-0.0508-0.5732-2.185-0.8512-4.4371-0.8267-6.6959 2.4943-0.1676 5.0273-0.9842 7.5186-0.5891zm-21.793-12.981c-0.0067 0.0283-0.0104 0.0572-0.0111 0.0863l0.0111-0.0863zm-0.0121 0.1066c-0.0045 0.0225-0.0078 0.0452-0.0103 0.0681l0.0103-0.0681z" fill="#D2D234"/>
<path d="m43.074 52.07c0.8023 0.265 3.4348-2.1542 2.0485-2.7423-1.1071-0.1411-2.8843 1.7723-2.0485 2.7423zm-0.1158 3.7883c1.8413 1.5985 0.6094-1.6108 0.6236-2.5595-0.9913-1.3771-1.2422 1.9825-0.6236 2.5595zm3.0306 1.5234c-1.7936-1.7063-1.6352 0.9649-0.262 1.6036 1.5549 1.2899 3.7141-0.5616 1.0653-1.2055l0.19 0.0812c-0.3477-0.1234-0.6801-0.2841-0.9933-0.4793z" fill="#D2D234"/>
<path d="m48.881 59.339c1.431 0.7779 5.2102-1.6078 2.4823-2.2202-0.774 0.3778-4.0108 1.1436-2.4823 2.2202zm6.0653-4.6963c-1.0948-0.1615-1.6554 1.4493-2.1053 2.2151 0.5037 1.8546 3.5536-1.3954 2.1053-2.2151zm-5.9617-5.1786c3.3841 1.0328 3.4541-1.7418 0.1494-1.6291-2.7392-0.1615-3.1241 1.5295-0.1494 1.6291z" fill="#D2D234"/>
<path d="m52.591 49.626c0.0584 0.6162 0.2761 1.2067 0.6317 1.7133l-0.1249-0.1625c0.1868 0.2722 0.3789 0.6185 0.7597 0.5881-1.298 1.043-2.3116 2.9757-3.5171 0.7211-2.1054-2.6335-1.5336 1.2533-0.4621 2.3003 3.5912 4.7532 13.786-12.111 4.6759-3.6612 0.3118-0.97-1.2898-2.9484-1.9632-1.4991z" fill="#D2D234"/>
</svg>
