<?xml version="1.0" encoding="UTF-8"?>
<svg viewBox="0 0 24 24" xmlns="http://www.w3.org/2000/svg">
<path d="m21.38 15.937c0 0.571 0.4631 1.0334 1.0338 1.0334h0.9489c0.1245 0 0.2255-0.1009 0.2255-0.2255v-2.2721c0-0.1246-0.101-0.2255-0.2255-0.2255h-0.9489c-0.5709 0-1.0338 0.463-1.0338 1.0338v0.6559zm1.0338 0.5824c-0.3219 0-0.5828-0.2608-0.5828-0.5824v-0.6559c0-0.3217 0.2611-0.5828 0.5828-0.5828h0.7234v1.8211h-0.7234z" clip-rule="evenodd" fill="#100C08" fill-rule="evenodd"/>
<path d="m0.96107 16.882c0.04269 0.0555 0.10867 0.0879 0.17861 0.0879h1.2742c0.57119 0 1.0338-0.4625 1.0338-1.0334v-0.6559c0-0.5707-0.46245-1.0338-1.0338-1.0338h-0.67558c-0.10241 0-0.19196 0.069-0.21805 0.168l-0.59867 2.2721c-0.01782 0.0677-0.00325 0.1397 0.039441 0.1951zm0.47121-0.3631 0.47984-1.8211h0.50181c0.32213 0 0.58283 0.261 0.58283 0.5828v0.6559c0 0.3217-0.26053 0.5824-0.58283 0.5824h-0.98165z" clip-rule="evenodd" fill="#100C08" fill-rule="evenodd"/>
<path d="m4.4271 12.699 0.93906-3.5636c0.0078-0.02972 0.02525-0.05615 0.04956-0.07495 0.02435-0.01876 0.05421-0.02896 0.08492-0.029h3.3873c0.20966 0 0.37959 0.16993 0.37959 0.37954v3.3847c0 0.2096-0.16993 0.3795-0.37959 0.3795h-4.0938c-0.24888 0-0.43041-0.2355-0.36701-0.4762zm-0.4361-0.1149c-0.13873 0.5267 0.25841 1.0421 0.80311 1.0421h4.0938c0.45869 0 0.83057-0.3718 0.83057-0.8305v-3.3847c0-0.45864-0.37183-0.83052-0.83057-0.83052h-3.3876c-0.13029 1.3e-4 -0.25711 0.04338-0.36025 0.12303-0.10313 0.07964-0.17701 0.19112-0.21011 0.31713l-0.93901 3.5635z" clip-rule="evenodd" fill="#100C08" fill-rule="evenodd"/>
<path d="m12.074 13.175c-0.2096 0-0.3795-0.1699-0.3795-0.3795v-3.3847c0-0.20957 0.1699-0.3795 0.3795-0.3795h3.2625c0.0307 0 0.0605 0.01019 0.0847 0.02891 0.0243 0.01872 0.0417 0.04496 0.0495 0.07459l0.2538 0.9632c0.0317 0.1204 0.1551 0.1923 0.2755 0.1606s0.1923-0.155 0.1606-0.2755l-0.2537-0.96312c-0.0332-0.12591-0.1071-0.23735-0.2102-0.3169-0.1031-0.07951-0.2297-0.12271-0.3599-0.12276h-3.2628c-0.4587 0-0.8305 0.37184-0.8305 0.83048v3.3847c0 0.4587 0.3718 0.8305 0.8305 0.8305h3.9689c0.5535 0 0.9405-0.526 0.8003-1.0521l-0.0021-0.0078-2e-4 -8e-4 -0.3286-1.2476c-0.0318-0.1204-0.1551-0.1923-0.2755-0.1606-0.1205 0.0318-0.1924 0.1551-0.1606 0.2755l0.3288 1.2484 2e-4 8e-4 0.0022 0.0083c0.0663 0.2484-0.1162 0.4849-0.3645 0.4849h-3.9689z" clip-rule="evenodd" fill="#100C08" fill-rule="evenodd"/>
<path d="m5.6924 18.872c0 0.7587 0.61505 1.3737 1.3737 1.3737 0.75873 0 1.3737-0.615 1.3737-1.3737s-0.61501-1.3737-1.3737-1.3737c-0.75868 0-1.3737 0.615-1.3737 1.3737zm1.3737 0.9228c-0.5096 0-0.92275-0.4132-0.92275-0.9228s0.41315-0.9227 0.92275-0.9227c0.50966 0 0.92276 0.4131 0.92276 0.9227s-0.4131 0.9228-0.92276 0.9228z" clip-rule="evenodd" fill="#100C08" fill-rule="evenodd"/>
<path d="m15.273 18.872c0 0.7587 0.6151 1.3737 1.3737 1.3737 0.7587 0 1.3738-0.615 1.3738-1.3737s-0.6151-1.3737-1.3738-1.3737c-0.7586 0-1.3737 0.615-1.3737 1.3737zm1.3737 0.9228c-0.5096 0-0.9227-0.4132-0.9227-0.9228s0.4131-0.9227 0.9227-0.9227c0.5097 0 0.9228 0.4131 0.9228 0.9227s-0.4131 0.9228-0.9228 0.9228z" clip-rule="evenodd" fill="#100C08" fill-rule="evenodd"/>
<path d="m4.0954 6.6576c-0.48808 0-0.88372-0.3956-0.88372-0.88365v-1.6034c0-0.48801 0.39565-0.88367 0.88372-0.88367h2.0612v3.3707h-2.0612zm-1.3347-0.88365c0 0.73713 0.59758 1.3346 1.3347 1.3346h2.2867c0.12452 0 0.22549-0.10092 0.22549-0.22549v-3.8217c0-0.12454-0.10097-0.22549-0.22549-0.22549h-2.2867c-0.73713 0-1.3347 0.59756-1.3347 1.3346v1.6034z" clip-rule="evenodd" fill="#100C08" fill-rule="evenodd"/>
<path d="m6.1567 6.8833c0 0.12456 0.10097 0.22549 0.22549 0.22549h2.1014c0.12456 0 0.22549-0.10093 0.22549-0.22549v-3.8217c0-0.70483-0.57135-1.2762-1.2762-1.2762-0.70479 0-1.2762 0.57138-1.2762 1.2762v3.8217zm0.45098-0.22549v-3.5962c0-0.45577 0.36949-0.82523 0.8252-0.82523 0.45576 0 0.82521 0.36947 0.82521 0.82523v3.5962h-1.6504z" clip-rule="evenodd" fill="#100C08" fill-rule="evenodd"/>
<path d="m8.2581 6.8831c0 0.12457 0.10097 0.22549 0.22549 0.22549h3.5368c0.1245 0 0.2255-0.10092 0.2255-0.22549v-3.8217c0-0.12454-0.101-0.22549-0.2255-0.22549h-3.5368c-0.12452 0-0.22549 0.10095-0.22549 0.22549v3.8217zm0.45098-0.22549v-3.3707h3.0858v3.3707h-3.0858z" clip-rule="evenodd" fill="#100C08" fill-rule="evenodd"/>
<path d="m11.795 6.8833c0 0.12456 0.101 0.22549 0.2255 0.22549h2.1014c0.1245 0 0.2255-0.10093 0.2255-0.22549v-3.8217c0-0.70483-0.5714-1.2762-1.2762-1.2762-0.7049 0-1.2762 0.57139-1.2762 1.2762v3.8217zm0.451-0.22549v-3.5962c0-0.45578 0.3694-0.82523 0.8252-0.82523 0.4557 0 0.8252 0.36947 0.8252 0.82523v3.5962h-1.6504z" clip-rule="evenodd" fill="#100C08" fill-rule="evenodd"/>
<path d="m17.292 5.7744c0 0.12456 0.101 0.22549 0.2255 0.22549h1.5295c0.5673 0 1.0272-0.45987 1.0272-1.0272 0-0.56728-0.4599-1.0272-1.0272-1.0272h-1.5295c-0.1245 0-0.2255 0.10095-0.2255 0.22549v1.6033zm0.451-0.22549v-1.1524h1.304c0.3182 0 0.5762 0.25797 0.5762 0.57617 0 0.31822-0.258 0.57618-0.5762 0.57618h-1.304z" clip-rule="evenodd" fill="#100C08" fill-rule="evenodd"/>
<path d="m13.896 6.8831c0 0.12457 0.101 0.22549 0.2255 0.22549h2.2867c0.7372 0 1.3347-0.5975 1.3347-1.3346v-1.6034c0-0.73709-0.5975-1.3346-1.3347-1.3346h-2.2867c-0.1245 0-0.2255 0.10095-0.2255 0.22549v3.8217zm0.451-0.22549v-3.3707h2.0612c0.4881 0 0.8837 0.39566 0.8837 0.88367v1.6034c0 0.48805-0.3956 0.88365-0.8837 0.88365h-2.0612z" clip-rule="evenodd" fill="#100C08" fill-rule="evenodd"/>
<path d="m3.9633 18.872c0 1.7136 1.3892 3.1028 3.1028 3.1028 1.7136 0 3.1028-1.3892 3.1028-3.1028 0-1.7137-1.3892-3.1029-3.1028-3.1029-1.7136 0-3.1028 1.3892-3.1028 3.1029zm3.1028 2.6518c-1.4646 0-2.6518-1.1873-2.6518-2.6518 0-1.4646 1.1873-2.6519 2.6518-2.6519 1.4646 0 2.6519 1.1873 2.6519 2.6519 0 1.4645-1.1873 2.6518-2.6519 2.6518z" clip-rule="evenodd" fill="#100C08" fill-rule="evenodd"/>
<path d="m1.3079 16.991c-2e-5 0 1e-5 -1e-4 0 0l0.04983-0.1884 0.59874-2.2723 0.44256-1.6794c0.03174-0.1204-0.04016-0.2438-0.16058-0.2755-0.12043-0.0318-0.24377 0.0401-0.27551 0.1606l-0.44257 1.6794-0.64852 2.4604c-0.30079 1.1421 0.56028 2.2605 1.7417 2.2605h1.5761c0.06021 0 0.11793-0.0241 0.16029-0.0669 0.04235-0.0428 0.06582-0.1007 0.06519-0.1609-9e-5 -0.0088-4e-4 -0.0173-5.9e-4 -0.0228l-5e-5 -0.0017c-2.3e-4 -0.0064-2.9e-4 -0.0093-2.9e-4 -0.0114 0-1.4646 1.1873-2.6518 2.6518-2.6518s2.6518 1.1872 2.6518 2.6518c0 0.0089-5e-5 0.0096-2.3e-4 0.0107-1.3e-4 0.0014-4e-4 0.0035-7.2e-4 0.0244-8.6e-4 0.0603 0.02255 0.1185 0.0649 0.1615 0.04239 0.0429 0.1002 0.0671 0.16059 0.0671h3.8282c0.0604 0 0.1182-0.0242 0.1606-0.0671 0.0424-0.043 0.0658-0.1012 0.0649-0.1615-3e-4 -0.0192-5e-4 -0.0221-7e-4 -0.0241-1e-4 -0.0016-2e-4 -0.0026-2e-4 -0.011 0-1.4646 1.1872-2.6518 2.6518-2.6518 1.4645 0 2.6518 1.1872 2.6518 2.6518 0 0.0021-1e-4 5e-3 -3e-4 0.0114v0.0017c-2e-4 0.0055-5e-4 0.014-6e-4 0.0228-6e-4 0.0602 0.0228 0.1181 0.0652 0.1609 0.0423 0.0428 0.1001 0.0669 0.1603 0.0669h2.2642c0.9947 0 1.801-0.8063 1.801-1.8013v-2.8621c0-0.9947-0.8063-1.801-1.801-1.801h-2.3146c-0.1764-1e-4 -0.3479-0.0585-0.4876-0.1662-0.1398-0.1077-0.24-0.2587-0.2849-0.4293l-0.9342-3.5458c-0.2906-1.1037-1.2887-1.8726-2.4292-1.8726h-9.8368c-1.141 0-2.1386 0.76892-2.4293 1.8726l-0.75306 2.8577c-0.03173 0.1204 0.04016 0.2437 0.16059 0.2755 0.12042 0.0317 0.24377-0.0402 0.2755-0.1606l0.75307-2.8577c0.23847-0.90565 1.057-1.5365 1.9932-1.5365h9.8368c0.9357 0 1.7546 0.63088 1.9931 1.5365l0.9342 3.546c0.0703 0.2669 0.227 0.503 0.4456 0.6715 0.2187 0.1685 0.4869 0.2599 0.763 0.26h2.3146c0.7456 0 1.35 0.6044 1.35 1.35v2.8621c0 0.746-0.6044 1.3503-1.35 1.3503h-2.0434c-0.0968-1.6264-1.4465-2.9155-3.0972-2.9155-1.6508 0-3.0004 1.2891-3.0972 2.9155h-3.3865c-0.0968-1.6264-1.4465-2.9155-3.0973-2.9155s-3.0004 1.2891-3.0973 2.9155h-1.3552c-0.88552 0-1.5311-0.8382-1.3057-1.6943z" clip-rule="evenodd" fill="#100C08" fill-rule="evenodd"/>
<path d="m13.544 18.872c0 1.7136 1.3891 3.1028 3.1028 3.1028 1.7136 0 3.1028-1.3892 3.1028-3.1028 0-1.7137-1.3892-3.1029-3.1028-3.1029-1.7137 0-3.1028 1.3892-3.1028 3.1029zm3.1028 2.6518c-1.4646 0-2.6518-1.1873-2.6518-2.6518 0-1.4646 1.1872-2.6519 2.6518-2.6519s2.6518 1.1873 2.6518 2.6519c0 1.4645-1.1872 2.6518-2.6518 2.6518z" clip-rule="evenodd" fill="#100C08" fill-rule="evenodd"/>
</svg>
