<?xml version="1.0" encoding="UTF-8"?>
<svg viewBox="0 0 100 101" xmlns="http://www.w3.org/2000/svg">
<rect y=".25" width="100" height="100" rx="50" fill="#FEEED5"/>
<path d="m76.301 39.031c-0.9762-0.118-4.1698-0.0042-5.1698-0.039-1.2306-1e-3 -4.3267-0.0151-5.526-0.0151l-0.9209-0.0021c-0.5817 0.052-0.9056-0.4485-0.6901-0.9448 0.1063-0.3011 0.6825-1.8156 0.8018-2.159 1.4332-3.8545 3.692-9.9613 5.1382-13.811 0.2004-0.546 0.4853-1.2318 0.663-1.793 0.234-0.9002-0.467-1.911-1.4279-1.9684l-14.78-0.1614c-1.8135-0.0368-8.2009-0.1462-9.9007-0.182-0.3357-0.0211-0.6713 0.0434-0.9753 0.1877-0.304 0.1442-0.5663 0.3633-0.7623 0.6367-0.2741 0.3391-0.3305 0.8104-0.4355 1.1917-0.0942 0.364-0.2925 1.2404-0.454 1.9294-0.2811-0.0177-0.5499-0.1213-0.7702-0.2968-1.5318-1.2448-2.9998-2.275-4.8479-0.8234-0.741 0.493-1.1201 1.1408-1.9468 1.2578-0.936 0.0477-1.8763-0.3391-2.9748-0.1073-0.6608 0.1127-1.3098 0.6847-1.5968 1.2524-0.4767 0.806-0.5991 1.8156-1.1147 2.4288-0.571 0.5471-1.6034 0.7193-2.3726 1.2112-1.1981 0.586-1.3509 2.0919-1.0855 3.1795 0.1365 0.9035 0.3597 1.5438-0.2145 2.3163-1.9511 2.4201-1.9348 3.134 0.0618 5.4925 0.6088 0.755 0.4225 1.4732 0.299 2.3811-0.6197 3.2337 1.7441 2.9217 3.5186 4.1611 0.5319 0.533 0.6988 1.5383 1.2112 2.458 0.494 1.1083 1.9186 1.2621 2.9467 1.0358 0.9089-0.1268 1.6455-0.312 2.4039 0.3l0.6164 0.481-0.6944 2.9737-0.0899 0.389c-0.3391 1.2718 0.8158 2.6205 2.0843 2.561 0.0152-0.0087 6.7135 0.0433 7.0287 0.0173 0.8785 0.0032 6.7308 0.0076 7.4653 0.0141 1e-3 -0.0596-0.8743 2.8871-0.8787 2.8827l-7.1283 23.957c-0.0587 0.1872-0.0499 0.389 0.0249 0.5704 0.0747 0.1814 0.2107 0.3308 0.3842 0.4222 0.1736 0.0915 0.3737 0.1193 0.5656 0.0784 0.1918-0.0408 0.3633-0.1476 0.4845-0.3019 5.9563-7.6493 21.407-27.468 27.221-34.835l4.5608-5.786c0.7887-0.7735 0.3878-2.2989-0.7215-2.5372l-1e-3 -0.0033zm-43.458 7.929c-0.8493 0.1235-1.6185 0.2568-2.0757-0.5872-0.4561-0.7193-0.5557-1.7333-1.3422-2.6314-0.8884-0.8039-1.9078-0.91-2.6206-1.3618-0.8374-0.4582-0.6933-1.2068-0.5731-2.0518 0.2037-0.9707 0.2947-2.2512-0.4279-3.0918-0.5817-0.8104-1.3054-1.5242-1.2848-2.1526 0.0671-1.0639 2.0518-2.3205 1.9781-3.7278 0.0553-0.9501-0.2892-1.9131-0.144-2.7376 0.0693-0.286 0.2177-0.4441 0.5622-0.6424 0.8656-0.4691 1.859-0.5655 2.717-1.3422 0.7962-0.8244 0.9436-1.8276 1.4387-2.6607 0.2113-0.325 0.3413-0.4138 0.5795-0.4571 0.8104-0.0889 1.7388 0.2805 2.7149 0.2556 1.1159 0.0401 2.1645-0.9186 2.9477-1.4939 1.079-0.8807 1.6879 0.3228 2.6402 0.9252 0.8882 0.8038 2.4331 0.7886 3.4536 0.5741 0.5622-0.0498 0.9339-0.1549 1.2415 0.0564 0.6966 0.9024 0.663 2.0648 1.6271 3.0582 0.9859 0.9621 2.1385 0.9556 3.0334 1.6488 0.3131 0.7876-0.1799 1.8103-0.0845 2.8351-0.0715 1.4832 1.6164 2.5502 1.9716 3.7104 0.012 0.1344-0.0877 0.4225-0.3239 0.7573-0.3856 0.5102-1.0411 1.3498-1.2978 1.9532-0.52 1.2015 0.1538 2.6206 0.0531 3.7159-0.1463 0.6337-0.9978 0.8114-1.6336 1.1136-0.455 0.2015-0.9773 0.4139-1.4713 0.8993-0.78 0.8645-0.8699 1.8513-1.3325 2.7277-0.4095 0.793-1.0291 0.6295-1.8449 0.5536-0.7215-0.0931-1.6607-0.2546-2.4223 0.0834-1.0085 0.4248-2.0063 1.7713-2.8405 1.7833-0.6478 0.0248-1.3672-0.701-2.171-1.2828-0.8363-0.7171-2.1005-0.6305-3.069-0.4279l1e-3 -0.0021zm37.82 1.119c-0.5905-0.4035-1.1958-0.7851-1.8145-1.144-1.2707-0.7375-2.5581-1.4462-3.861-2.1255-1.0227-0.5319-2.054-1.0465-3.0907-1.5512-1.0163-0.5006-2.0477-0.9696-3.093-1.4063-0.0561-0.0227-0.1132-0.043-0.1712-0.0606-0.055-0.0159-0.1138-0.0138-0.1676 0.0061s-0.0998 0.0565-0.1314 0.1044c-0.0345 0.0523-0.049 0.1152-0.0409 0.1773 0.0082 0.0621 0.0385 0.1192 0.0853 0.1607 0.064 0.0541 0.1344 0.1072 0.2113 0.156 1.9089 1.1934 3.8633 2.3126 5.8587 3.3551l0.118 0.0618c1.0163 0.5307 2.0421 1.0432 3.0778 1.5372 0.8721 0.4149 1.7561 0.8093 2.6422 1.197l-1.3086 1.6273c-2.21-1.3153-4.4936-2.4809-6.7741-3.6553-2.4385-1.1862-4.8695-2.3897-7.3915-3.4092-0.0651-0.0252-0.1373-0.0252-0.2024 0-0.0651 0.0251-0.1185 0.0736-0.1498 0.136-0.0312 0.0624-0.038 0.1342-0.0193 0.2014 0.0189 0.0672 0.0621 0.1249 0.1212 0.1621 2.3421 1.3715 4.7285 2.6662 7.1554 3.8815 2.2562 1.1271 4.546 2.1856 6.8661 3.1742l-2.2467 2.7885c-0.5473-0.3901-1.1097-0.7587-1.6858-1.105-1.248-0.738-2.5156-1.4424-3.8014-2.1125-1.7528-0.9035-3.5067-1.8037-5.343-2.5589-0.0996-0.0411-0.2156-0.0183-0.2783 0.0553-0.0748 0.0877-0.0618 0.2059 0.013 0.2621 1.0985 0.8299 2.7808 1.8829 4.5802 2.8806 0.285 0.1582 0.5731 0.3109 0.8624 0.4648 1.1237 0.5952 2.2592 1.1677 3.406 1.7171 0.6641 0.3195 1.2859 0.6034 1.8731 0.858l-2.2209 2.7505c-0.2864-0.2485-0.5866-0.4806-0.8991-0.6955-0.7995-0.5535-1.7074-1.0865-2.4007-1.5015-0.1387-0.0834-0.2578-0.157-0.3553-0.2122-1.2784-0.7324-2.5675-1.4442-3.9401-2.0248-0.0736-0.0315-0.1581-0.0347-0.2124-0.0044-0.0682 0.039-0.0834 0.1062-0.0682 0.1398 0.2177 0.4789 1.547 1.4799 3.0918 2.4299 1.0366 0.6198 2.0911 1.2091 3.1623 1.767 0.4496 0.2361 0.8591 0.4408 1.2155 0.6066l-2.067 2.5566c-0.0411-0.0367-0.0801-0.0736-0.1235-0.1105-0.6609-0.5697-1.547-1.1732-1.7095-1.3162-0.8624-0.5633-1.7149-1.1418-2.6845-1.5524-0.9566 0.0379 0.0942 1.0161 1.4527 1.9955 0.6793 0.4896 1.4354 0.9794 2.0552 1.3509 0.1755 0.1051 0.3357 0.1982 0.4852 0.2817-4.914 6.0775-10.207 12.611-14.019 17.314l6.2238-19.594c0.3001-0.962 0.6825-2.1005 0.9501-3.0864 0.3153-1.3065-0.845-2.6606-2.1591-2.587-0.2579-0.0065-0.9014 0.0109-1.1711 0.0022l-6.2475 0.0097c-0.4128-0.0227-6.981 0.051-7.1143 0 0 0-0.0055-0.0065-0.0044-0.0227l0.0759-0.3738 0.4918-2.4169c1.0996 0.1637 2.054-0.624 3.067-1.4072 0.7745-0.5764 1.4256-0.3531 2.3302-0.2145 2.1785 0.5026 3.1438-0.5179 3.8263-2.4581 0.5287-1.8243 2.6445-1.3488 3.7776-2.6964 0.6619-0.715 0.6001-1.9544 0.4789-2.7126-0.0975-0.8515-0.2785-1.442 0.2588-2.0812 0.6435-0.8818 1.5557-1.5806 1.6239-2.9672-0.0097-0.8341-0.3867-1.4386-0.689-1.8829l-0.8536-1.1429c-0.4821-0.6435-0.2568-1.1558-0.1419-1.9943 0.1646-0.7758 0.2264-2.1429-0.4745-2.911-0.78-1.014-2.3367-1.1732-3.1612-1.8005-0.4615-0.5362-0.6413-1.5502-1.131-2.3129-0.3218-0.6078-1.0747-1.2328-1.7908-1.3358-0.3442-0.0609-0.6951-0.0754-1.0432-0.0433l0.0791-0.3954c0.0791-0.3207 0.2059-1.1668 0.299-1.4538 0.0119-0.0228 0.0287-0.0426 0.0491-0.0581 0.0203-0.0155 0.0439-0.0264 0.069-0.0319l0.8309-0.0184c5.7817-0.1376 17.99-0.2686 23.9-0.3206 0.3066 0.0032 0.5622 0.3401 0.4907 0.6575-1.0746 3.1027-3.2446 8.9202-4.3691 12.056l-1.2631 3.4613c-0.1256 0.3337-0.6716 1.8557-0.7898 2.1635-0.4777 1.0182 0.4464 2.276 1.5352 2.1417l1.6975-0.0055c1.1583 0.884 2.3621 1.7066 3.6065 2.4646 0.6703 0.4067 1.352 0.7942 2.0442 1.1624 0.5438 0.2893 1.0995 0.5569 1.6575 0.8223l-1.3217 1.65c-0.4378-0.3432-0.8941-0.6618-1.3672-0.9545-1.0615-0.6593-2.139-1.2926-3.2316-1.899-0.8467-0.4685-1.702-0.9214-2.5652-1.3585-0.8522-0.4413-1.7205-0.8503-2.6033-1.2264-0.0468-0.0199-0.096-0.0337-0.1462-0.0411-0.048-0.0073-0.0969-0.0011-0.1414 0.0179-0.0445 0.0189-0.083 0.0498-0.1111 0.0893-0.0307 0.0419-0.0477 0.0923-0.0486 0.1443-1e-3 0.0519 0.0141 0.103 0.0432 0.146 0.0416 0.0604 0.0937 0.1129 0.1539 0.155 1.5612 1.0725 3.1733 2.0694 4.8305 2.9867l0.0975 0.0541c0.8434 0.4692 1.6973 0.9193 2.561 1.3499 0.7075 0.3531 1.4278 0.6835 2.1493 1.0108l-0.2697 0.3357-1.0551 1.3163 0.0042-0.0033zm5.6626-7.0655-2.223 2.7734c-0.3028-0.2597-0.6203-0.5017-0.9511-0.7248-1.0757-0.741-2.4191-1.5156-2.6011-1.6726-0.6781-0.3932-1.3531-0.7897-2.041-1.1657-0.2351-0.1289-0.4734-0.2503-0.7106-0.3738 2.3767-0.0065 4.927-0.0107 7.0156-0.0042 0.1939 0.0107 1.1277-0.0207 1.2707 0.0281 0.4864 0.1527 0.6609 0.7345 0.2405 1.1396z" fill="#FBB03B"/>
<path d="m36.887 30.75c0.2308-4.1557-6.0169-4.0788-5.8219 0 0.2807 3.4883 5.5468 3.5523 5.8219 0zm-1.9403 0c0.2547 2.2458-2.9986 2.2068-2.8448 0 0.3424-1.7984 2.4852-1.4982 2.8448 0zm4.7852 8.6666c0.2805 3.4884 5.5466 3.5523 5.8217 0 0.2308-4.1556-6.0167-4.0787-5.8217 0zm3.8826 0c0.2546 2.2458-2.9986 2.2068-2.8449 0 0.3424-1.7983 2.4853-1.4982 2.8449 0zm-0.7377-10.374-10.975 10.691c-1.0237 1.0098 0.5276 2.5513 1.5319 1.5319l10.691-10.975c0.7942-0.8211-0.4333-2.0388-1.2479-1.248z" fill="#FBB03B"/>
</svg>
