<?xml version="1.0" encoding="UTF-8"?>
<svg viewBox="0 0 100 101" xmlns="http://www.w3.org/2000/svg">
<rect y=".25" width="100" height="100" rx="50" fill="#DDEED6"/>
<path d="m68.106 74.776c-0.0942-0.0824-0.2035-0.1454-0.322-0.1854s-0.2437-0.0563-0.3685-0.0479c-0.1247 0.0084-0.2466 0.0411-0.3587 0.0967-0.112 0.0554-0.2121 0.1324-0.2943 0.2265l-3.9256 4.4896c-0.4158 0.476-0.9929 0.7498-1.6249 0.7712-0.6337 0.0225-1.2264-0.2129-1.6734-0.6593l-3.0253-3.0242v-1.9999c0-0.5258-0.4263-0.9521-0.9522-0.9521s-0.9522 0.4263-0.9522 0.9521v7.3541c0 0.5259 0.4263 0.9522 0.9522 0.9522s0.9522-0.4263 0.9522-0.9522v-2.6616l1.6793 1.6786c0.7792 0.7784 1.8455 1.2178 2.9444 1.2178 1.1941 0 2.3482-0.5239 3.1337-1.4234l3.9254-4.4893c0.0823-0.0942 0.1453-0.2036 0.1853-0.322 0.04-0.1185 0.0563-0.2437 0.0479-0.3685-0.0083-0.1247-0.0412-0.2466-0.0967-0.3587s-0.1324-0.2121-0.2266-0.2943zm-39.543-1.2848c-0.2526 0-0.4948 0.1003-0.6733 0.2788-0.1786 0.1786-0.2789 0.4208-0.2789 0.6733v7.3541c0 0.5259 0.4262 0.9522 0.9522 0.9522 0.5259 0 0.9521-0.4263 0.9521-0.9522v-7.3541c0-0.2525-0.1003-0.4947-0.2789-0.6733-0.1786-0.1785-0.4207-0.2788-0.6732-0.2788zm52.732-40.647-6.3821-5.1855c-0.4414-0.3585-1.0344-0.4295-1.548-0.185-0.5136 0.2444-0.8325 0.7495-0.8325 1.3183v12.238l3e-4 0.0052v15.443l-9.587 10.934-3.0371-5.6703c-1.4496-2.7083-4.1251-4.6223-7.1575-5.1203-1.2505-0.2052-4.1693-0.6825-5.2211-0.8555-0.3792-0.0611-0.7242-0.2556-0.9729-0.5483-0.2488-0.2927-0.3849-0.6646-0.3839-1.0488v-1.1252c0.7507-0.4726 1.4463-1.0277 2.0738-1.6548 2.2322-2.2336 3.4615-5.2022 3.4615-8.3588v-0.4139h0.3669c1.8838 0.0086 3.4861-1.5934 3.4861-3.4861 0-1.0043-0.4411-1.9376-1.1563-2.5861 0.5535-0.7895 0.7104-1.827 0.3954-2.7379-0.1354-0.39-0.3495-0.7481-0.6289-1.0523-0.2793-0.3042-0.618-0.5477-0.9951-0.7159-0.1-0.0444-0.2009-0.0871-0.3015-0.1304v-6.854c0-4.0279-3.277-7.3049-7.3048-7.3049h-11.361c-4.0278 0-7.3049 3.277-7.3049 7.3049v6.854c-0.1003 0.0433-0.2008 0.086-0.3007 0.1303-0.3772 0.1682-0.716 0.4119-0.9953 0.716-0.2794 0.3042-0.4934 0.6623-0.6289 1.0525-0.3191 0.9226-0.1624 1.9441 0.3936 2.7388-0.7146 0.6481-1.155 1.5807-1.155 2.585 0 1.8876 1.5839 3.4969 3.4874 3.4861h0.367v0.4139c0 4.2106 2.2125 7.9134 5.5352 10.008v1.3249c3e-4 0.3548-0.1183 0.6996-0.3372 0.9789-0.2188 0.2794-0.525 0.4773-0.8696 0.562l-7.9067 1.95c-1.8613 0.456-3.5156 1.5239-4.6974 3.0326-1.1818 1.5086-1.8226 3.3705-1.8197 5.2869v15.623c0 0.5259 0.4262 0.9522 0.9521 0.9522 0.526 0 0.9522-0.4263 0.9522-0.9522v-15.623c-0.0023-1.4905 0.4961-2.9386 1.4153-4.1119 0.9191-1.1733 2.2057-2.004 3.6534-2.3587l6.1245-1.5103c1.8935 3.0366 5.2061 4.8939 8.8155 4.8939 3.7451 0 7.1259-1.9639 8.985-5.1705l3.5679 0.5846c2.4515 0.4026 4.6148 1.9501 5.7869 4.14l3.0732 5.7374c0.141 0.2638 0.3439 0.4895 0.5913 0.6576 0.2473 0.1681 0.5319 0.2738 0.829 0.3079 0.2975 0.0342 0.5988-0.0043 0.8782-0.1121s0.5285-0.2818 0.726-0.5069l6.5209-7.4371 4.142 4.1434c0.0039 0.0038 0.0081 0.0071 0.012 0.011l-5.3096 6.0725c-0.1627 0.1906-0.2437 0.4376-0.2255 0.6876 0.0183 0.2499 0.1344 0.4826 0.323 0.6475 0.1887 0.1649 0.4346 0.2488 0.6848 0.2336 0.2502-0.0153 0.4842-0.1285 0.6513-0.3152l8.7513-10.008c1.7911-2.0317 1.4771-5.2809-0.6202-6.9575-1.4089-1.1263-3.2539-1.341-4.8206-0.7095v-13.61l6.8581-5.5723c0.2284-0.1848 0.4126-0.4186 0.5389-0.6839 0.1262-0.2653 0.1915-0.5556 0.191-0.8495 0-0.5975-0.2662-1.1564-0.7299-1.5333zm-27.638 6.2866c0 0.8582-0.723 1.5861-1.5818 1.5818h-0.3669v-2.8894c0.3583 0.0255 0.7184-0.0129 1.0634-0.1133 0.532 0.2624 0.8853 0.8136 0.8853 1.4209zm-25.585 1.5818h-0.367c-0.8638 0.0044-1.5831-0.7225-1.5831-1.5818 0-0.6068 0.3524-1.1569 0.8829-1.419 0.3462 0.1007 0.7074 0.1391 1.067 0.1136l2e-4 2.8872zm0.2356-4.8788c-0.5454 0.2418-1.1773 0.0052-1.4612-0.5238-0.2991-0.5573-0.0482-1.2744 0.5294-1.5309 5.2309-2.3225 11.005-3.1431 16.676-2.3698 0.5201 0.0702 1.001-0.294 1.0718-0.815 0.0168-0.1239 0.0091-0.25-0.0227-0.3709-0.0319-0.1209-0.0872-0.2343-0.1629-0.3339-0.0757-0.0995-0.1702-0.1832-0.2783-0.2461-0.108-0.0631-0.2274-0.1041-0.3513-0.1209-5.2227-0.7119-10.54-0.1519-15.5 1.6323v-6.1006c0-2.978 2.4227-5.4006 5.4006-5.4006h11.361c2.9779 0 5.4005 2.4226 5.4005 5.4006v6.1002c-0.7275-0.2617-1.4641-0.4977-2.2084-0.7073-0.2426-0.0667-0.5017-0.0348-0.7208 0.0889s-0.3803 0.3291-0.4484 0.5713c-0.0682 0.2421-0.0377 0.5014 0.0847 0.7212s0.3269 0.3822 0.5687 0.4517c1.4197 0.4 2.8089 0.9008 4.1572 1.4988 0.5727 0.2543 0.8251 0.972 0.5314 1.527-0.2788 0.5267-0.9046 0.7752-1.4634 0.5277-7.1053-3.1465-15.964-3.1921-23.164 1e-4zm1.6686 7.197v-5.8316c6.353-2.5409 13.475-2.5408 19.828 3e-4v5.8313c0 2.6482-1.0314 5.1388-2.904 7.0125-1.8576 1.8588-4.3599 2.9049-7.0098 2.9049-5.4666 1e-4 -9.9139-4.449-9.9139-9.9174zm9.9134 18.152c-2.7373 0-5.2656-1.309-6.8514-3.4825 1.5524-0.4821 2.6289-2.0348 2.4732-3.6895 1.3924 0.5575 2.8787 0.8431 4.3786 0.8416 1.5246 0 3.0038-0.2893 4.3785-0.8375-0.0975 1.6403 1.0327 3.1219 2.5755 3.5468-1.5743 2.2604-4.138 3.6211-6.9544 3.6211zm38.178-3.8936c1.276 1.02 1.4643 2.9851 0.3759 4.2172l-2.1856 2.4996-4.1516-4.1531 1.9341-2.2058c0.4956-0.5674 1.1912-0.9215 1.9417-0.9882 0.7504-0.0667 1.4977 0.1592 2.0855 0.6303zm2.0261-22.856-5.6573 4.5967-4e-4 -9.3041 5.6575 4.5968c0.0289 0.0179 0.0296 0.0922 2e-4 0.1106zm-34.962 7.8766c0.2525 0 0.4948-0.1003 0.6733-0.2789 0.1786-0.1786 0.2789-0.4207 0.2789-0.6732v-2.0978c0-0.5258-0.4262-0.9521-0.9522-0.9521-0.5259 0-0.9521 0.4263-0.9521 0.9521v2.0978c0 0.2525 0.1003 0.4946 0.2788 0.6732 0.1786 0.1786 0.4208 0.2789 0.6733 0.2789zm-10.485-4.0019c-0.2526 0-0.4948 0.1003-0.6733 0.2788-0.1786 0.1786-0.2789 0.4208-0.2789 0.6734v2.0977c0 0.5258 0.4262 0.9521 0.9522 0.9521 0.5259 0 0.9521-0.4263 0.9521-0.9521v-2.0977c0-0.2526-0.1003-0.4948-0.2788-0.6734-0.1786-0.1785-0.4208-0.2788-0.6733-0.2788zm8.1742 8.737c-0.1215-0.2214-0.3259-0.3854-0.5683-0.4561s-0.503-0.0421-0.7245 0.0793c-0.5133 0.2803-1.0896 0.4251-1.6746 0.4206-0.5608-0.0065-1.1115-0.151-1.6032-0.4206-0.2212-0.1182-0.4801-0.1445-0.7205-0.0731-0.2403 0.0714-0.4428 0.2349-0.5636 0.4547-0.1206 0.2198-0.1496 0.4784-0.0807 0.7196 0.0688 0.2411 0.23 0.4453 0.4486 0.5684 0.5331 0.2927 1.3996 0.6437 2.4995 0.6554 1.1112 0.0115 2.0612-0.354 2.6106-0.6552 0.2213-0.1216 0.3854-0.3261 0.4561-0.5685 0.0706-0.2425 0.0421-0.503-0.0794-0.7245z" fill="#63AB45"/>
</svg>
