<?xml version="1.0" encoding="UTF-8"?>
<svg fill="none" viewBox="0 0 24 24" xmlns="http://www.w3.org/2000/svg">
<path d="m19.83 12.647h-3.5458c-0.1017 0-0.1992 0.0404-0.2711 0.1123-0.0719 0.0718-0.1123 0.1693-0.1123 0.271v9.5835h-2.0125v-3.9771c0-0.1017-0.0404-0.1992-0.1123-0.2711s-0.1694-0.1123-0.2711-0.1123h-3.45c-0.10166 0-0.19917 0.0404-0.27106 0.1123-0.07188 0.0719-0.11228 0.1694-0.11228 0.2711v3.9771h-2.0125v-13.896c0-0.42272 0.34395-0.76668 0.76668-0.76668h6.7084c0.4228 0 0.7667 0.34396 0.7667 0.76668v2.1323c0 0.1016 0.0404 0.1991 0.1123 0.271s0.1694 0.1123 0.2711 0.1123c0.1016 0 0.1991-0.0404 0.271-0.1123s0.1123-0.1694 0.1123-0.271v-2.1323c0-0.8455-0.6879-1.5334-1.5334-1.5334h-6.7084c-0.84551 0-1.5334 0.68785-1.5334 1.5334v13.896h-3.1626c-0.42272 0-0.76667-0.3439-0.76667-0.7667v-7.6668c0-0.4227 0.34395-0.7666 0.76667-0.7666h1.3417c0.10168 0 0.19919-0.0404 0.27107-0.1123 0.07189-0.0719 0.11227-0.1694 0.11227-0.2711s-0.04038-0.1992-0.11227-0.271c-0.07188-0.0719-0.16939-0.1123-0.27107-0.1123h-1.3417c-0.8455 0-1.5334 0.6878-1.5334 1.5333v7.6668c0 0.8455 0.68785 1.5334 1.5334 1.5334h12.554c0.1016 0 0.1991-0.0404 0.271-0.1123s0.1123-0.1694 0.1123-0.2711v-9.5834h3.1625c0.4228 0 0.7667 0.3439 0.7667 0.7666v7.6668c0 0.4228-0.3439 0.7667-0.7667 0.7667h-1.6291c-0.1017 0-0.1992 0.0404-0.2711 0.1123s-0.1123 0.1694-0.1123 0.271c0 0.1017 0.0404 0.1992 0.1123 0.2711s0.1694 0.1123 0.2711 0.1123h1.6291c0.8455 0 1.5334-0.6879 1.5334-1.5334v-7.6668c0-0.8455-0.6879-1.5333-1.5334-1.5333zm-9.3918 6.373h2.6834v3.5938h-2.6834v-3.5938zm-0.2473-15.255-0.2441 1.4281c-0.05343 0.31271 0.276 0.55167 0.5567 0.40361l1.2764-0.67344 1.2764 0.67344c0.2805 0.14806 0.6102-0.09076 0.5567-0.40361l-0.2441-1.4281 1.0337-1.0112c0.2263-0.22138 0.1009-0.60764-0.2127-0.65335l-1.4274-0.20816-0.6386-1.2985c-0.1401-0.28506-0.5478-0.28506-0.6879 0l-0.6386 1.2985-1.4274 0.20816c-0.31329 0.04561-0.43931 0.43173-0.21276 0.65335l1.0336 1.0112zm0.9167-1.1431c0.0616-0.00898 0.12-0.03281 0.1703-0.06942 0.0503-0.03662 0.0909-0.08492 0.1184-0.14075l0.3836-0.78005 0.3836 0.78005c0.0275 0.05582 0.0681 0.10413 0.1184 0.14074 0.0503 0.03662 0.1087 0.06045 0.1703 0.06943l0.8606 0.12554-0.6237 0.61004c-0.0443 0.04335-0.0774 0.0968-0.0965 0.15577-0.0192 0.05897-0.0237 0.1217-0.0133 0.18281l0.1469 0.85974c-0.8413-0.44386-0.8213-0.44923-0.9463-0.44923-0.1266 0-0.1152 0.01069-0.9464 0.44923l0.1469-0.85974c0.0105-0.06111 0.0059-0.12384-0.0132-0.18281-0.0191-0.05898-0.0523-0.11243-0.0966-0.15577l-0.6236-0.61004 0.8606-0.12554zm-5.1576 1.2499c0.08702-0.26776 0.33136-0.26407 0.57454-0.29943 0.10959-0.2221 0.18055-0.45388 0.46226-0.45388 0.28151 0 0.35354 0.23351 0.46231 0.45388l0.26508 0.03852c0.31376 0.04562 0.43964 0.43241 0.21247 0.65388l-0.19182 0.18698c0.04184 0.24409 0.1207 0.47338-0.10724 0.63893-0.22776 0.16551-0.42326 0.01888-0.6408-0.0955-0.21918 0.11524-0.41286 0.2611-0.64081 0.0955-0.2278-0.16546-0.14878-0.39671-0.10722-0.63893-0.17716-0.17279-0.37583-0.31204-0.28877-0.57995zm-3.3542 1.9167c0.08702-0.26776 0.33135-0.26407 0.57453-0.29943l0.11855-0.24021c0.14035-0.2843 0.54707-0.28454 0.68752 0l0.11855 0.24021c0.24505 0.0356 0.48746 0.03148 0.57453 0.29943 0.08702 0.26777-0.11284 0.4084-0.28879 0.57995l0.04528 0.26402c0.0403 0.23489-0.14122 0.44813-0.37789 0.44813-0.11816 0-0.16488-0.03695-0.41539-0.16872l-0.23705 0.12468c-0.28065 0.14749-0.60985-0.09133-0.55623-0.40409l0.04529-0.26402c-0.1773-0.17279-0.37596-0.31204-0.2889-0.57995zm12.941-1.9167c0.087-0.26776 0.3313-0.26407 0.5745-0.29943l0.1185-0.24021c0.1404-0.28434 0.5471-0.28449 0.6876 0l0.1185 0.24021c0.245 0.0356 0.4875 0.03148 0.5745 0.29943 0.087 0.26777-0.1128 0.4084-0.2888 0.57995l0.0453 0.26402c0.0403 0.2349-0.1412 0.44813-0.3779 0.44813-0.1181 0-0.1648-0.03695-0.4154-0.16872l-0.237 0.12468c-0.2807 0.14749-0.6099-0.09133-0.5562-0.40409l0.0452-0.26402c-0.1773-0.17279-0.3759-0.31204-0.2888-0.57995zm3.3542 1.9167c0.087-0.26776 0.3313-0.26407 0.5745-0.29943l0.1186-0.24021c0.1403-0.28435 0.547-0.28449 0.6875 0l0.1185 0.24021c0.245 0.0356 0.4875 0.03148 0.5746 0.29943 0.087 0.26777-0.1129 0.4084-0.2888 0.57995l0.0452 0.26402c0.0403 0.23489-0.1412 0.44813-0.3778 0.44813-0.1182 0-0.1649-0.03695-0.4154-0.16872l-0.2371 0.12468c-0.2806 0.14749-0.6098-0.09133-0.5562-0.40409l0.0453-0.26402c-0.1774-0.17279-0.376-0.31204-0.2889-0.57995zm-13.963 10.308c0.10167 0 0.19917 0.0404 0.27106 0.1123s0.11229 0.1694 0.11229 0.2711v1.6292c0 0.1016-0.0404 0.1991-0.11229 0.271s-0.16939 0.1123-0.27106 0.1123-0.19917-0.0404-0.27106-0.1123-0.11228-0.1694-0.11228-0.271v-1.6292c0-0.1017 0.04039-0.1992 0.11228-0.2711s0.16939-0.1123 0.27106-0.1123zm13.704 2.3959c-0.1017 0-0.1992-0.0404-0.2711-0.1123-0.0718-0.0719-0.1122-0.1694-0.1122-0.271v-1.6292c0-0.1017 0.0404-0.1992 0.1122-0.2711 0.0719-0.0719 0.1694-0.1123 0.2711-0.1123s0.1992 0.0404 0.2711 0.1123 0.1122 0.1694 0.1122 0.2711v1.6292c0 0.1016-0.0403 0.1991-0.1122 0.271s-0.1694 0.1123-0.2711 0.1123zm-4.648-6.6605h-4.4084c-0.10167 0-0.19919-0.0404-0.27108-0.1123s-0.11226-0.1694-0.11226-0.2711c0-0.1016 0.04037-0.1991 0.11226-0.271s0.16941-0.1123 0.27108-0.1123h4.4084c0.1017 0 0.1992 0.0404 0.2711 0.1123s0.1123 0.1694 0.1123 0.271c0 0.1017-0.0404 0.1992-0.1123 0.2711s-0.1694 0.1123-0.2711 0.1123zm-0.6708 2.9229c0.1016 0 0.1991 0.0404 0.271 0.1123s0.1123 0.1694 0.1123 0.2711-0.0404 0.1992-0.1123 0.271c-0.0719 0.0719-0.1694 0.1123-0.271 0.1123h-3.0667c-0.1017 0-0.1992-0.0404-0.27108-0.1123-0.07189-0.0718-0.11228-0.1693-0.11228-0.271s0.04039-0.1992 0.11228-0.2711c0.07188-0.0719 0.16938-0.1123 0.27108-0.1123h3.0667z" fill="#100C08"/>
</svg>
