<?xml version="1.0" encoding="UTF-8"?>
<svg viewBox="0 0 24 24" xmlns="http://www.w3.org/2000/svg">
<path d="m5.8091 7.2937c-3.1095 0-5.6393 2.5298-5.6393 5.6392 0 1.9306 0.91838 4.0064 2.7297 6.1697 0.25576 0.305 0.52077 0.6021 0.79467 0.8909-1.1695 0.3193-1.8717 0.8928-1.8717 1.5622 0 1.1849 2.0539 1.8244 3.9864 1.8244 1.9325 0 3.9864-0.6395 3.9864-1.8244 0-0.6689-0.70195-1.2425-1.8707-1.5619 0.46692-0.4929 0.96933-1.0729 1.446-1.7197 0.02684-0.0357 0.04634-0.0762 0.05739-0.1194s0.01342-0.0882 0.00698-0.1323c-0.00645-0.0442-0.02158-0.0866-0.04452-0.1248-0.02294-0.0383-0.05324-0.0716-0.08915-0.098-0.0359-0.0265-0.07669-0.0456-0.12001-0.0561-0.04332-0.0106-0.08831-0.0125-0.13237-0.0056-0.04405 0.0069-0.0863 0.0225-0.12429 0.0459-0.03799 0.0233-0.07098 0.054-0.09705 0.0901-0.57554 0.7811-1.1985 1.4675-1.7421 2.0127-0.06313 0.032-0.11459 0.0831-0.14708 0.146-0.48695 0.4785-0.89673 0.8335-1.1292 1.0275-0.22996-0.1921-0.63349-0.5423-1.1142-1.0146-0.03404-0.0747-0.09414-0.1344-0.16904-0.168-1.5277-1.5365-3.6817-4.1912-3.6817-6.9445 0-2.7375 2.2272-4.9647 4.9647-4.9647s4.9647 2.2272 4.9647 4.9647c0 1.1955-0.4073 2.4866-1.2107 3.8373-0.02264 0.0381-0.03756 0.0803-0.04391 0.1241s-4e-3 0.0885 0.00691 0.1314c0.0109 0.043 0.03016 0.0833 0.05667 0.1188 0.0265 0.0355 0.05974 0.0654 0.09781 0.088 0.03806 0.0227 0.08022 0.0376 0.12405 0.044 0.04384 0.0063 0.08849 4e-3 0.13142-7e-3 0.04293-0.0109 0.08325-0.0301 0.11875-0.0566s0.0654-0.0598 0.0881-0.0978c0.8662-1.4566 1.3055-2.8636 1.3055-4.1822 0-3.1095-2.5298-5.6393-5.6392-5.6393zm-0.20641 14.468c0.05907 0.0458 0.13169 0.0706 0.20641 0.0705 0.07473 1e-4 0.14735-0.0247 0.20642-0.0705 0.04137-0.032 0.60496-0.4715 1.3562-1.206 1.1375 0.2319 1.7492 0.6786 1.7492 1.0001 0 0.2401-0.3291 0.5234-0.85886 0.7392-0.64975 0.2648-1.5209 0.4107-2.453 0.4107-2.0218 0-3.3119-0.6811-3.3119-1.1499 0-0.322 0.61183-0.7684 1.75-1.0004 0.7554 0.7389 1.3198 1.1786 1.3556 1.2063z" fill="#63AB45"/>
<path d="m5.8092 10.481c-0.53345 0-1.0407 0.1684-1.4669 0.487-0.07162 0.0536-0.11904 0.1334-0.13183 0.2219-0.01279 0.0886 0.0101 0.1785 0.06364 0.2502 0.05358 0.0716 0.13341 0.119 0.22193 0.1318s0.1785-0.0101 0.25016-0.0636c0.30865-0.2308 0.67625-0.3528 1.063-0.3528 0.98006 0 1.7774 0.7973 1.7774 1.7774s-0.79732 1.7774-1.7774 1.7774-1.7774-0.7973-1.7774-1.7774c0-0.1672 0.02314-0.3326 0.06873-0.4913 0.02468-0.086 0.0142-0.1782-0.02913-0.2565-0.04333-0.0782-0.11598-0.1361-0.20194-0.1608-0.08598-0.0246-0.17821-0.0141-0.25644 0.0293-0.07823 0.0433-0.13607 0.1159-0.1608 0.2019-0.06308 0.2203-0.09501 0.4483-0.09487 0.6774 0 1.352 1.0999 2.452 2.4519 2.452 1.352 0 2.4519-1.1 2.4519-2.452-5e-5 -1.352-1.1-2.4519-2.452-2.4519zm14.698-0.3025c0.1805-0.19336 0.3558-0.39152 0.5257-0.59424 1.4041-1.6771 2.1161-3.2893 2.1161-4.792 0-2.4328-1.9793-4.4122-4.4122-4.4122-1.7772 0-3.373 1.0577-4.0653 2.6947-0.0172 0.04079-0.0263 0.08458-0.0266 0.12886-4e-4 0.04429 8e-3 0.08821 0.0247 0.12925 0.0166 0.04104 0.0412 0.07841 0.0723 0.10996 0.031 0.03155 0.068 0.05667 0.1088 0.07392 0.0824 0.03483 0.1752 0.03551 0.2581 0.00191s0.149-0.09874 0.1839-0.1811c0.5866-1.3868 1.9385-2.283 3.4441-2.283 2.061 0 3.7377 1.6768 3.7377 3.7377 0 2.7871-2.9261 5.4572-3.7378 6.1441-0.1789-0.1511-0.4605-0.3986-0.7906-0.7222-0.0327-0.0645-0.0853-0.1167-0.15-0.149-1.1645-1.1725-2.797-3.188-2.797-5.2729 0-0.08945-0.0355-0.17524-0.0987-0.23849-0.0633-0.06325-0.1491-0.09879-0.2385-0.09879-0.0895 0-0.1753 0.03554-0.2385 0.09879-0.0633 0.06325-0.0988 0.14904-0.0988 0.23849 0 1.5026 0.712 3.1148 2.1162 4.792 0.1698 0.20259 0.345 0.40066 0.5253 0.59399-0.8694 0.2612-1.3713 0.7058-1.3713 1.2413 0 0.4515 0.3663 0.8495 1.0315 1.1205 0.5692 0.2319 1.3187 0.3597 2.1105 0.3597 0.7917 0 1.5412-0.1278 2.1104-0.3597 0.6651-0.2711 1.0314-0.669 1.0314-1.1206 0-0.5344-0.5023-0.9795-1.3714-1.241zm-1.7705 2.0467c-1.5964 0-2.4673-0.5322-2.4673-0.8057 0-0.1782 0.3961-0.5042 1.2421-0.6841 0.5692 0.5538 0.9917 0.8829 1.0189 0.9041 0.0591 0.0458 0.1317 0.0706 0.2065 0.0705 0.0747 1e-4 0.1473-0.0247 0.2064-0.0705 0.0272-0.0211 0.4496-0.3502 1.0189-0.904 0.3768 0.0804 0.7033 0.1981 0.9318 0.3372 0.1942 0.1183 0.3102 0.2479 0.3102 0.3468-1e-4 0.2735-0.871 0.8057-2.4675 0.8057z" fill="#63AB45"/>
<path d="m18.736 2.8298c-1.0821 0-1.9625 0.88038-1.9625 1.9626 0 1.0821 0.8804 1.9625 1.9625 1.9625 1.0822 0 1.9626-0.88033 1.9626-1.9625s-0.8804-1.9626-1.9626-1.9626zm1e-4 3.2505c-0.7103 0-1.2881-0.57778-1.2881-1.288 0-0.71021 0.5778-1.288 1.2881-1.288 0.7102 0 1.288 0.57778 1.288 1.288 0 0.71022-0.5778 1.288-1.288 1.288zm-4.375 5.0019h-0.154c-0.1121 0-0.2248 0.0075-0.335 0.0221-0.088 0.0127-0.1675 0.0595-0.2211 0.1303-0.0536 0.0709-0.0772 0.16-0.0654 0.2481 0.0117 0.0881 0.0577 0.168 0.128 0.2224s0.1592 0.0788 0.2475 0.0679c0.0815-0.0107 0.1637-0.0161 0.246-0.0161h0.154c0.1863 0 0.3373-0.151 0.3373-0.3373 0-0.1864-0.151-0.3374-0.3373-0.3374zm-1.115 10.119h-0.0016l-0.4454 2e-3c-0.0895 2e-4 -0.1752 0.0359-0.2383 0.0993s-0.0985 0.1493-0.0983 0.2387c2e-4 0.0895 0.0359 0.1752 0.0993 0.2383s0.1493 0.0985 0.2387 0.0983h0.0016l0.4455-2e-3c0.0894-5e-4 0.175-0.0364 0.238-0.0999 0.0629-0.0636 0.0981-0.1495 0.0977-0.2389-4e-4 -0.0892-0.0361-0.1746-0.0993-0.2376-0.0632-0.0629-0.1487-0.0982-0.2379-0.0982zm1.5152-5.7503h-0.4455c-0.0894 0-0.1752 0.0355-0.2384 0.0988-0.0633 0.0632-0.0988 0.149-0.0988 0.2385 0 0.0894 0.0355 0.1752 0.0988 0.2385 0.0632 0.0632 0.149 0.0987 0.2384 0.0987h0.4455c0.0443 0 0.0881-0.0087 0.1291-0.0256 0.0409-0.017 0.0781-0.0418 0.1094-0.0731 0.0313-0.0314 0.0562-0.0685 0.0731-0.1095 0.017-0.0409 0.0257-0.0847 0.0257-0.129s-0.0087-0.0882-0.0257-0.1291c-0.0169-0.0409-0.0418-0.0781-0.0731-0.1094-0.0313-0.0314-0.0685-0.0562-0.1094-0.0731-0.041-0.017-0.0848-0.0257-0.1291-0.0257zm-1.7871-3.6815c-0.0607-0.0657-0.1449-0.1047-0.2343-0.1083s-0.1765 0.0285-0.2423 0.0891c-0.126 0.1162-0.2399 0.2449-0.3399 0.3842-0.05 0.0727-0.0695 0.1621-0.0543 0.2491 0.0152 0.0869 0.0638 0.1645 0.1355 0.216s0.1607 0.0728 0.248 0.0594c0.0872-0.0134 0.1658-0.0604 0.2187-0.131 0.0734-0.1022 0.157-0.1966 0.2494-0.2819 0.0657-0.0607 0.1047-0.1449 0.1083-0.2343s-0.0284-0.1765-0.0891-0.2423zm2.0537 9.4236h-0.0015l-0.4454 0.0021c-0.0885 0.0016-0.1728 0.0379-0.2348 0.1012-0.0619 0.0632-0.0965 0.1482-0.0963 0.2368 1e-4 0.0885 0.0351 0.1734 0.0974 0.2363 0.0622 0.063 0.1466 0.099 0.2352 0.1002h0.0015l0.4454-2e-3c0.0885-0.0017 0.1729-0.038 0.2348-0.1012 0.0619-0.0633 0.0965-0.1483 0.0964-0.2368-2e-4 -0.0885-0.0352-0.1734-0.0974-0.2364-0.0623-0.063-0.1467-0.0989-0.2353-0.1002zm-3.5636 0.0162h-0.0016l-0.4455 0.0021c-0.0894 4e-4 -0.175 0.0363-0.238 0.0999-0.0629 0.0635-0.0981 0.1494-0.0977 0.2389 4e-4 0.0891 0.0361 0.1745 0.0993 0.2375 0.0632 0.0629 0.1487 0.0982 0.2379 0.0982h0.0016l0.4454-2e-3c0.0895-4e-4 0.1751-0.0364 0.238-0.0999 0.063-0.0635 0.0982-0.1495 0.0978-0.2389-4e-4 -0.0892-0.0361-0.1746-0.0993-0.2375s-0.1488-0.0983-0.2379-0.0983zm1.759-6.0418c-0.1063-0.0671-0.2055-0.1448-0.2962-0.2319-0.0644-0.062-0.1509-0.0959-0.2403-0.0941-0.0895 0.0017-0.1745 0.0389-0.2366 0.1033-0.0307 0.0319-0.0548 0.0696-0.0709 0.1108-0.0162 0.0413-0.0241 0.0853-0.0232 0.1296 9e-4 0.0442 0.0104 0.0879 0.0282 0.1285 0.0177 0.0406 0.0433 0.0773 0.0752 0.108 0.1236 0.1188 0.2589 0.2248 0.4039 0.3163 0.0374 0.0237 0.0792 0.0397 0.1229 0.0472 0.0436 0.0076 0.0883 0.0064 0.1316-0.0034 0.0432-0.0098 0.084-0.028 0.1202-0.0536s0.0669-0.058 0.0905-0.0955c0.0237-0.0375 0.0397-0.0793 0.0472-0.1229 0.0075-0.0437 0.0063-0.0884-0.0035-0.1315-0.0098-0.0432-0.028-0.0841-0.0535-0.1203-0.0256-0.0361-0.058-0.0669-0.0955-0.0905zm-0.8291-1.208c-0.0227-0.1171-0.0341-0.2362-0.0341-0.3555l1e-4 -0.0187c5e-4 -0.0443-0.0077-0.0883-0.0242-0.1294s-0.0409-0.0786-0.0718-0.1103c-0.031-0.0316-0.0679-0.0569-0.1086-0.0743-0.0407-0.0175-0.0845-0.0267-0.1287-0.0272h-4e-3c-0.0888 0-0.174 0.035-0.2371 0.0974s-0.0991 0.1472-0.1001 0.2359l-2e-4 0.0266c0 0.1629 0.0157 0.3259 0.0466 0.4846 0.0085 0.0434 0.0254 0.0848 0.0499 0.1217 0.0245 0.037 0.056 0.0687 0.0927 0.0934 0.0367 0.0248 0.078 0.0421 0.1214 0.0509s0.0881 9e-3 0.1316 5e-4 0.0849-0.0255 0.1218-0.0499c0.0369-0.0245 0.0686-0.056 0.0934-0.0927 0.0247-0.0367 0.042-0.078 0.0508-0.1214s9e-3 -0.0881 5e-4 -0.1316zm4.149 1.4915h-0.4454c-0.0895 0-0.1753 0.0355-0.2385 0.0988-0.0633 0.0632-0.0988 0.149-0.0988 0.2385 0 0.0894 0.0355 0.1752 0.0988 0.2385 0.0632 0.0632 0.149 0.0987 0.2385 0.0987h0.4454c0.0895 0 0.1752-0.0355 0.2385-0.0987 0.0632-0.0633 0.0988-0.1491 0.0988-0.2385 0-0.0895-0.0356-0.1753-0.0988-0.2385-0.0633-0.0633-0.149-0.0988-0.2385-0.0988zm5.4149 0.6867c-0.1302-0.1028-0.2683-0.1954-0.4129-0.2768-0.1621-0.0915-0.3679-0.034-0.4594 0.1283-0.0217 0.0385-0.0356 0.081-0.0409 0.125-0.0054 0.044-2e-3 0.0886 0.0099 0.1312 0.012 0.0427 0.0322 0.0826 0.0595 0.1174 0.0273 0.0349 0.0613 0.064 0.0998 0.0857 0.1141 0.0644 0.2231 0.1375 0.3259 0.2186 0.0595 0.0471 0.133 0.0727 0.2088 0.0726 0.0702 1e-4 0.1385-0.0217 0.1957-0.0623s0.1003-0.098 0.1233-0.1642 0.0248-0.138 0.0052-0.2053c-0.0197-0.0673-0.0598-0.1268-0.1149-0.1702zm-1.2519 5.2971c-0.0256-0.1845-0.1961-0.3136-0.3803-0.2879-0.1104 0.0152-0.2235 0.0233-0.3363 0.0237l-0.0631 3e-4c-0.0882 0.0023-0.1719 0.0389-0.2333 0.1021-0.0615 0.0631-0.0958 0.1478-0.0956 0.236 2e-4 0.0881 0.0349 0.1727 0.0967 0.2356 0.0617 0.0628 0.1456 0.0991 0.2337 0.1009h0.0017l0.063-3e-4c0.1423-6e-4 0.2845-0.0107 0.4256-0.0301 0.0438-0.0061 0.0861-0.0207 0.1243-0.0431s0.0717-0.0521 0.0984-0.0874 0.0463-0.0756 0.0574-0.1184c0.0112-0.0429 0.0139-0.0875 0.0078-0.1314zm1.4885-0.9484c-0.0305-0.0321-0.0671-0.0579-0.1076-0.0758s-0.0841-0.0277-0.1284-0.0288-0.0883 0.0066-0.1297 0.0225c-0.0413 0.016-0.079 0.0399-0.1111 0.0705-0.095 0.0904-0.1968 0.1733-0.3045 0.2481-0.0735 0.051-0.1237 0.1291-0.1397 0.2171-0.0159 0.088 0.0037 0.1787 0.0547 0.2523 0.031 0.0448 0.0725 0.0815 0.1208 0.1067 0.0484 0.0253 0.1021 0.0385 0.1567 0.0384 0.0685 0 0.1355-0.0209 0.1918-0.0601 0.1364-0.0946 0.2652-0.1996 0.3854-0.3141 0.0321-0.0305 0.0579-0.0671 0.0758-0.1076s0.0277-0.0841 0.0288-0.1284-0.0066-0.0883-0.0226-0.1297c-0.0159-0.0413-0.0399-0.0791-0.0704-0.1111zm0.6564-1.638c-0.0879-0.0165-0.1788 0.0025-0.2526 0.053-0.0739 0.0504-0.1247 0.1281-0.1412 0.216-0.0243 0.1286-0.0586 0.2552-0.1025 0.3786-0.0289 0.084-0.0235 0.176 0.015 0.256s0.1071 0.1417 0.1907 0.1715c0.0837 0.0298 0.1757 0.0254 0.2562-0.0122 0.0804-0.0376 0.1428-0.1055 0.1736-0.1888 0.0557-0.1565 0.0991-0.317 0.1299-0.4803 0.0165-0.0879-0.0025-0.1788-0.053-0.2526-0.0505-0.0739-0.1282-0.1247-0.2161-0.1412zm0.2003-1.0842c-0.0459-0.1598-0.1042-0.3157-0.1745-0.4664-0.0387-0.0797-0.1072-0.141-0.1906-0.1706-0.0835-0.0297-0.1752-0.0253-0.2555 0.0122-0.0803 0.0374-0.1426 0.1049-0.1735 0.1879s-0.0279 0.1749 0.0083 0.2557c0.0553 0.1186 0.1013 0.2415 0.1375 0.3673 0.0202 0.0704 0.0627 0.1323 0.1212 0.1763 0.0584 0.0441 0.1296 0.068 0.2028 0.068 0.0523 0 0.1038-0.0121 0.1506-0.0354 0.0467-0.0233 0.0874-0.0572 0.1189-0.0989 0.0314-0.0417 0.0528-0.0902 0.0623-0.1416 0.0095-0.0513 7e-3 -0.1042-0.0075-0.1545zm-4.7263-2.3132h-0.4455c-0.0894 0-0.1752 0.0355-0.2385 0.0988-0.0632 0.0632-0.0987 0.149-0.0987 0.2385 0 0.0894 0.0355 0.1752 0.0987 0.2385 0.0633 0.0632 0.1491 0.0987 0.2385 0.0987h0.4455c0.0894 0 0.1752-0.0355 0.2385-0.0987 0.0632-0.0633 0.0988-0.1491 0.0988-0.2385 0-0.0895-0.0356-0.1753-0.0988-0.2385-0.0633-0.0633-0.1491-0.0988-0.2385-0.0988zm-1.5153 5.734h-0.0016l-0.4454 0.0021c-0.0885 0.0016-0.1728 0.0379-0.2348 0.1012-0.0619 0.0632-0.0965 0.1483-0.0963 0.2368s0.0352 0.1734 0.0974 0.2363c0.0622 0.063 0.1467 0.099 0.2352 0.1002h0.0016l0.4454-2e-3c0.0895-2e-4 0.1752-0.0359 0.2383-0.0993s0.0984-0.1493 0.0982-0.2387c-2e-4 -0.0895-0.0359-0.1752-0.0993-0.2383s-0.1492-0.0985-0.2387-0.0983zm3.312-5.7308c-0.0479-0.0021-0.0957-0.0032-0.1436-0.0032h-0.3167c-0.0895 0-0.1753 0.0356-0.2385 0.0988-0.0633 0.0633-0.0988 0.1491-0.0988 0.2385 0 0.0895 0.0355 0.1752 0.0988 0.2385 0.0632 0.0632 0.149 0.0988 0.2385 0.0988h0.3167c0.0381 0 0.0761 8e-4 0.1137 0.0025 0.0443 0.0019 0.0885-0.0048 0.1301-0.02 0.0416-0.0151 0.0799-0.0382 0.1126-0.0681 0.0326-0.0299 0.0591-0.066 0.0778-0.1061 0.0188-0.0401 0.0294-0.0836 0.0314-0.1278 0.0019-0.0442-0.0048-0.0885-0.0199-0.1301-0.0152-0.0416-0.0383-0.0799-0.0682-0.1125-0.0299-0.0327-0.066-0.0592-0.1061-0.0779-0.0401-0.0188-0.0836-0.0294-0.1278-0.0314zm-1.5302 5.7228h-0.0015l-0.4455 2e-3c-0.0885 0.0016-0.1728 0.038-0.2347 0.1012-0.062 0.0633-0.0966 0.1483-0.0964 0.2368s0.0352 0.1734 0.0974 0.2364 0.1467 0.0989 0.2352 0.1002h0.0016l0.4454-0.0021c0.0895-4e-4 0.1751-0.0363 0.238-0.0998 0.063-0.0636 0.0982-0.1495 0.0978-0.239-4e-4 -0.0891-0.0361-0.1745-0.0993-0.2375-0.0632-0.0629-0.1488-0.0982-0.238-0.0982z" fill="#63AB45"/>
</svg>
