<?xml version="1.0" encoding="UTF-8"?>
<svg viewBox="0 0 100 101" xmlns="http://www.w3.org/2000/svg">
<rect y=".25" width="100" height="100" rx="50" fill="#DDEED6"/>
<path d="m51.516 20.994 0.0696-0.0676c-15.456-0.1491-31.098 12.334-30.832 30.681 0.2584 17.748 14.556 30.263 31.24 29.496 2.194-0.0973 4.3691-0.4513 6.4807-1.0546 2.627 2.0624 6.9836 3.4361 9.8343 2.2801 1.163-0.482 2.2007-1.2564 3.0684-2.2463 3.2125-2.9342 3.7006-7.9438 2.9421-12.305 4.785-6.7918 6.1378-14.604 4.9072-21.876-2.2623-13.374-13.26-24.915-27.711-24.907zm14.982 6.59c-0.0568 0.116-0.0815 0.245-0.0715 0.3738 0.2464 2.4282-2.3756 4.1318-4.4948 2.9391-1.5655-0.8826-2.4252-3.1677-4.5225-3.9331-3.8417-1.4065-6.6835 3.0693-9.7956 2.7463-1.1868-0.1262-2.3557-1.0546-2.9789-2.3656-0.4671-0.9821-0.6749-2.1947-0.6719-3.7413 8.0213-2.3826 15.907-0.9264 22.535 3.9808zm-41.674 15.388c5.2252-1.5714 12.272 1.7196 7.1655 4.3724-1.1879 0.5984-2.4084 1.1501-3.0863 2.2802-0.8598 1.4373-0.4135 3.4561 0.9761 4.4093 0.5327 0.3628 1.2295 0.6222 1.306 0.9164 0.1789 0.6839-3.2701 2.966-7.072 1.8409-0.3986-1.8334-0.621-3.7006-0.664-5.5762-0.0738-2.7797 0.2737-5.5544 1.0307-8.23 0.114 0.0233 0.232 0.0188 0.344-0.013zm14.207 26.193c1.7653-3.2503 5.4847-4.1627 5.9678-3.5862 0.3061 0.3668-0.1858 1.3816-0.333 2.2325-0.4075 2.3069 1.8379 4.5801 4.1548 4.2044 2.6539-0.4333 3.9013-3.5375 5.934-3.7979 0.9621-0.1193 2.0813 0.4642 3.0018 1.5744 1.3398 1.6112 2.1956 4.9579 1.9809 7.4289-2.673 0.9733-5.4875 1.5014-8.3314 1.5636-4.4202 0.0996-8.7957-0.9016-12.733-2.9133-0.5625-1.9811-0.5665-5.0037 0.3579-6.7064zm18.986-13.222c-0.0467-1.2008-0.1919-2.3696-0.3717-3.9311-0.0134-0.1089-0.0508-0.2136-0.1097-0.3063-0.0588-0.0926-0.1374-0.171-0.2303-0.2295-0.977-0.9244-2.6817-2.7603-5.5513-4.8476-0.0872-0.0635-0.187-0.1075-0.2927-0.1286-0.1058-0.0212-0.2148-0.0192-0.3197 0.0058s-0.2031 0.0725-0.2879 0.1392c-0.0847 0.0667-0.154 0.151-0.203 0.247-1.9621 3.8476-3.1956 7.5005-3.9719 11.738-0.6511-0.3281-0.6908-0.3479-0.8161-0.4175 0.7773-5.3784 0.9165-10.468 0.9901-15.23 0.0017-0.1158-0.0234-0.2304-0.0737-0.3348-0.0501-0.1044-0.1239-0.1957-0.2156-0.2665-2.473-1.9144-4.7312-3.5186-6.8971-4.9003-0.4055-1.2523-0.6889-1.4492-0.5149-1.7155 0.1352-0.2087 0.2157-0.0815 1.5377-0.2237 2.794 1.8617 5.429 3.4888 7.8324 4.8386 0.2028 0.1134 0.4473 0.1273 0.662 0.0338 4.2442-1.8338 9.0878-3.3685 14.035-4.45 0.0606 0.0944 0.161 0.2585 0.2186 0.3579-3.5007 1.7096-7.075 4.2412-10.385 7.3782-0.0718 0.0679-0.1294 0.1494-0.1694 0.2398-0.04 0.0903-0.0615 0.1877-0.0635 0.2866-0.0019 0.0988 0.0158 0.197 0.0522 0.2889 0.0364 0.0918 0.0907 0.1756 0.1598 0.2463 1.973 2.0276 3.7573 3.6995 5.2979 4.9658 0.6679 0.5447 1.3478-0.3975 5.0633-1.1371 0.156 0.1839 0.32 0.4005 0.482 0.6312-3.3099 2.1072-4.445 2.9919-5.5563 6.8484-0.1002-0.0427-0.2006-0.0852-0.3011-0.1272zm4.2243-3.78c6.5582 7.085 14.451 20.479 7.6665 27.297 4.6786-7.2272-1.9442-18.229-9.3035-25.244 0.3868-0.7974 0.946-1.4988 1.637-2.0535zm7.593 20.677c0.1808 1.97-0.0795 3.4193-0.5418 4.5822-1.9631 2.8567-5.5702 3.137-7.9616 1.635 2.8547-1.1987 5.4966-2.952 7.4378-5.2838 0.3648-0.2983 0.7137-0.6153 1.0656-0.9334zm-5.3834-22.216c0.2843-0.1859 0.5537-0.3549 0.7833-0.4871 0.0278-0.0109 0.0577-7e-3 0.0835-0.0218 0.1692-0.1024 0.2909-0.2676 0.3384-0.4595 0.0476-0.1919 0.0169-0.3949-0.085-0.5643-0.2077-0.3439-0.7584-1.2127-1.3816-1.8359-0.0843-0.0851-0.1882-0.1484-0.3025-0.1844s-0.2355-0.0437-0.3535-0.0224c-1.6719 0.2933-3.1528 0.7754-4.5763 1.2624-1.2831-1.0784-2.7343-2.4362-4.3257-4.0464 3.2672-3.0018 6.768-5.3953 10.161-6.9429 0.1644-0.0767 0.2949-0.2115 0.3664-0.3782 0.0715-0.1669 0.079-0.3543 0.0212-0.5263-0.014-0.1262-0.0609-0.2466-0.1362-0.3489-0.4841-0.6262-0.8677-1.8279-1.6996-1.6559-5.0604 1.0765-10.035 2.625-14.413 4.4867-6.9916-3.964-7.4309-4.9559-8.1515-4.8704-1.3667 0.1739-2.2275-0.0686-2.8756 0.9174-0.1575 0.2406-0.2559 0.5152-0.2868 0.8012-0.0309 0.2859 0.0064 0.5751 0.1089 0.8439 1.3806 3.3367-0.8618 0.2087 7.6287 6.741-0.0795 4.9252-0.2316 9.8035-1.0387 15.137-0.1411 0.9373 1.4463 1.1908 2.3329 1.8617 0.0949 0.0726 0.206 0.1211 0.3238 0.1412s0.2387 0.0113 0.3523-0.0257c0.1137-0.0369 0.2167-0.1009 0.3001-0.1865 0.0834-0.0855 0.1447-0.1901 0.1788-0.3047 0.646-0.6341 0.2882-4.4231 3.779-11.594 1.5168 1.159 2.972 2.4591 4.615 4.117 0.0547 0.5984 0.1361 0.8389 0.3051 3.4988 0.0727 1.1311 0.1363 0.9959 1.161 1.4353 0.7624 0.3309 0.8111 0.3647 1.0705 0.328 0.1897 0.0313 0.3841-0.0125 0.5421-0.1219s0.2673-0.276 0.3047-0.4646c0.0935-0.4651 0.2466-0.9572 0.4156-1.4392 4.4817 4.3535 8.2996 9.0809 9.5749 15.349-2.4162 2.3331-5.2349 4.2095-8.3196 5.5384 0.0298-2.7364-0.9094-6.0314-2.3487-7.7639-1.2673-1.5268-2.8527-2.2881-4.3407-2.1013-2.6926 0.347-3.9391 3.474-5.9836 3.8069-1.2971 0.2148-2.6748-1.1748-2.4472-2.4749 0.171-0.9542 0.9383-2.3398 8e-3 -3.4481-0.5626-0.6759-1.5327-0.8806-2.7324-0.5804-2.3865 0.6003-4.5127 2.2483-5.6885 4.4111-0.9204 1.6967-1.0865 4.3089-0.7733 6.4509-5.9241-3.6041-10.447-9.4328-12.419-16.466 2.4651 0.4782 4.94-0.0924 6.8296-1.3885 1.0317-0.7097 1.4949-1.6103 1.2692-2.476-0.2732-1.0437-1.3199-1.3717-1.9063-1.7693-0.7355-0.5039-0.993-1.6549-0.5377-2.4123 0.4462-0.7475 1.4114-1.1788 2.4947-1.7246 3.7741-1.9601 3.1639-5.2053-0.2872-6.6764-2.301-0.9841-4.9628-1.1828-7.403-0.5954 2.8527-8.0531 9.4556-14.426 17.475-17.303 0.1193 4.5981 2.5803 6.8445 4.9907 7.1019 3.5256 0.3678 6.6317-3.8566 9.4436-2.8298 1.6033 0.5864 2.4373 2.7811 4.303 3.8317 2.6896 1.5169 6.3315-0.0794 6.6963-3.5047 5.1309 4.3396 8.5849 10.454 9.7945 17.034 1.2246 6.6615 0.1492 13.798-3.8168 20.048-1.5684-5.7372-5.6178-10.692-9.4228-15.148z" fill="#63AB45"/>
<path d="m72.494 41.922c-0.5339-0.3708-0.5537-0.3877-0.502-1.1053 0.0239-0.3369 0.0517-0.7196-0.0517-1.1202-0.5327-2.0774-3.5435-2.1997-4.3903-0.0139-0.5964 1.5416-3.2771 2.2851-2.0267 5.5066 1.0784 2.7791 5.1646 3.8725 7.3454 1.806 0.6719-0.6361 1.0615-1.5943 1.0427-2.5614-0.0259-1.2028-0.5716-1.9263-1.4174-2.5118zm-5.5802 2.7274c-0.8796-2.2652 1.1977-2.291 2.0267-4.4281 0.1491-0.3847 0.5298-0.645 0.8617-0.645 0.3053 0 0.6252 0.2236 0.6939 0.49 0.1212 0.4741-0.2157 1.322 0.2117 2.141 0.5656 1.0834 1.6857 0.8946 1.7125 2.2563 0.0537 2.7722-4.5105 2.7593-5.5065 0.1858zm-0.3896-22.186 0.5447-3.8963c0.018-0.1914-0.0384-0.3823-0.1575-0.5331-0.1192-0.1507-0.2919-0.2498-0.4822-0.2764-0.1904-0.0266-0.3836 0.0212-0.5396 0.1334-0.156 0.1123-0.2626 0.2804-0.2978 0.4693l-0.5447 3.8974c-0.1351 0.977 1.3399 1.1828 1.4771 0.2057zm4.615-2.4004-2.4313 3.4878c-0.5695 0.8161 0.6719 1.645 1.2226 0.8518l2.4313-3.4868c0.0584-0.0802 0.1001-0.1712 0.1229-0.2677 0.0227-0.0965 0.0261-0.1966 0.0097-0.2944s-0.0521-0.1914-0.1052-0.2752c-0.053-0.0838-0.1222-0.1562-0.2035-0.213-0.0813-0.0567-0.1733-0.0967-0.2702-0.1175-0.097-0.0208-0.1972-0.022-0.2946-0.0036-0.0975 0.0184-0.1902 0.056-0.273 0.1107-0.0827 0.0547-0.1536 0.1254-0.2087 0.2079zm1.6102 8.0352 4.3019-3.2264c0.1582-0.1186 0.2627-0.2952 0.2907-0.491 0.0279-0.1957-0.023-0.3945-0.1416-0.5527-0.1186-0.1581-0.2952-0.2627-0.491-0.2907-0.1957-0.0279-0.3945 0.023-0.5527 0.1416l-4.3029 3.2274c-0.7942 0.5954 0.1173 1.7783 0.8946 1.1928l1e-3 -1e-3z" fill="#63AB45"/>
</svg>
