<?xml version="1.0" encoding="UTF-8"?>
<svg fill="none" viewBox="0 0 16 21" xmlns="http://www.w3.org/2000/svg">
<path d="m2.0656 10.47c0.43188-0.0575 0.8635-0.1148 1.2937-0.1797 0.93-0.1401 1.8666-0.2194 2.7984-0.29828l0.00125-6e-5c0.13999-0.01188 0.27987-0.02369 0.41955-0.03575 1.0682-0.20868 2.1489-0.28585 3.228-0.2304 1.1068 0.12209 2.1927 0.46789 3.2192 1.0254v0.2649c-1.0265 0.5574-2.1124 0.9032-3.2192 1.0253-1.0791 0.0555-2.1598-0.0217-3.228-0.2304-1.0701-0.0921-2.1403-0.2073-3.2192-0.334-1.0789-0.1268-2.1491-0.2765-3.2193-0.4609v-0.2649c0.63994-0.1103 1.2831-0.1958 1.9256-0.2812zm8.8377 8.1597c0.1699-0.3906 0.3567-0.7647 0.5428-1.1375 0.0829-0.1659 0.1656-0.3316 0.2466-0.4983 0.2632-0.5415 0.5614-1.0599 0.8772-1.5667 0.1149-0.1845 0.2101-0.3873 0.3037-0.5867 0.1636-0.3486 0.3224-0.6869 0.5735-0.8994 0.4745-0.3848 1.0212-0.5882 1.5789-0.5876l0.114 0.1613c-0.0055 0.7324-0.1765 1.446-0.4912 2.0506-0.1777 0.3943-0.4752 0.62-0.773 0.8458-0.1285 0.0975-0.2571 0.1951-0.3761 0.3062-0.3947 0.3687-0.7982 0.7258-1.2105 1.0714s-0.8333 0.6797-1.2807 0.9907l-0.1052-0.1498zm0.991-15.185c-0.2661-0.22868-0.5317-0.45674-0.8155-0.66554l-0.1228 0.14978c0.2368 0.576 0.4912 1.129 0.7543 1.6704 0.2632 0.54142 0.5439 1.0714 0.8246 1.5898 0.0846 0.15631 0.1589 0.32517 0.2331 0.49397 0.172 0.39107 0.3438 0.78178 0.6441 1.0151 0.4591 0.41655 1.0033 0.64141 1.5613 0.6451l0.1228-0.14978c0.0089-0.73385-0.1467-1.4549-0.4473-2.0736-0.1618-0.32972-0.4195-0.53828-0.6849-0.75317-0.1518-0.12289-0.3062-0.24788-0.4467-0.39883-0.3859-0.41471-0.7631-0.8064-1.1842-1.152-0.1485-0.12191-0.2937-0.24665-0.4388-0.37126z" clip-rule="evenodd" fill="#63AB45" fill-rule="evenodd"/>
</svg>
