<?xml version="1.0" encoding="UTF-8"?>
<svg viewBox="0 0 100 101" xmlns="http://www.w3.org/2000/svg">
<rect y=".25" width="100" height="100" rx="50" fill="#F5F5D3"/>
<path d="m79.971 61.867c-2.1573-2.0589-4.8005 1.7297-10.894 4.0436-4.9389 1.8812-5.9548 1.9746-8.5318 2.3992-1.9644 0.3212-7.2197 1.1846-9.6791 0.7669 2.4072-1.4375 4.5746-3.4974 6.4748-5.5955 3.1301-3.394 4.3167-4.1128 4.4873-5.8996 0.1737-1.6705-0.8423-3.2274-2.7315-3.6451-4.2834-0.9958-7.4266 3.4664-9.892 5.2472-1.6644 1.2067-4.0265 0.9236-5.6357 1.0671v-2e-3c-3.7394 0.2249-6.0703 2.1363-9.5918 2.8781-0.1355-0.6013-0.2691-1.2026-0.4317-1.7999-0.4175-1.5561-1.9464-2.6522-3.5757-2.5589-3.8408 0.1707-3.2465 0.4989-6.3564 0.6255-1.812 0.0752-3.378 0.1405-4.0486 0.9445-0.1206 0.1436-0.209 0.3114-0.2592 0.492-0.0503 0.1806-0.0611 0.3699-0.0319 0.5551 0.7981 5.6848 0.3664 9.7475 1.053 13.889 0.0335 0.1961 0.1432 0.371 0.3052 0.4865s0.3632 0.1623 0.5595 0.1298c0.1963-0.0323 0.3719-0.1411 0.4883-0.3025 0.1163-0.1614 0.1641-0.3623 0.1327-0.5588-0.5993-3.6179-0.2911-8.4093-1.0369-13.767 0.6635-0.4155 3.8397-0.2941 5.1859-0.5541 1.1404-0.2209 2.5116-0.3674 4.0756-0.4367 0.9256-0.0231 1.8231 0.5822 2.057 1.4476 1.6222 5.998 1.837 12.217 0.6304 18.032-2.6462-0.1456-5.2461-0.4036-7.9054-0.5281-0.3704-0.0261-0.768 0.3012-0.788 0.7167-0.0093 0.1995 0.061 0.3944 0.1954 0.542s0.3219 0.2357 0.5213 0.2451l0.0402 2e-3 1.2086 1.1444c1.042 0.9878 1.9676 0.8773 8.0008 0.8693 0.7077 0 1.2719-0.4858 1.309-1.1524 0.0843-1.5409 0.1506-3.122 0.2419-4.6479 7.5229 3.8178 15.619 5.3054 23.097 4.2293 7.5842-1.0912 14.506-4.8115 19.719-10.597 0.8192-0.9085 1.6102-1.8913 2.0409-3.14 0.273-0.7911 0.4858-2.0118 0.2027-2.9906 0.3002-1.0822 0.0352-1.9354-0.6364-2.5779zm-38.274 0.1747c2.9544-0.7429 5.2452 0.253 8.1443-1.4817 2.2628-1.3352 3.8007-4.1088 6.8041-5.0695 0.1004 0 2.4264-0.6686 3.3349 0.6475 0.023 0.0331 0.0864 0.1085 0.1144 0.1385 0.7007 1.9937-0.018 2.0178-3.8316 6.1537-0.0503 0.0452-0.0764 0.0803-0.0684 0.0803h0.0021c-0.5793 0.4437-3.1251 3.7685-6.8142 5.7069-0.0673 0.0361-0.1195 0.0884-0.1707 0.1406-0.6836-0.0553-1.0701 0.7458-0.6224 1.2477 1.5721 1.7659 7.1224 1.0241 12.201 0.1888 1.2076-0.2951 2.1503 0.0622 8.8229-2.4755 4.6769-1.7768 9.5898-6.1577 9.6169-3.6982 0.0151 1.4757-2.5428 3.7072-3.6048 4.7462-2.6482 2.5197-5.456 4.439-8.6432 6.0241-10.503 5.1418-20.604 2.7727-32.023-0.6154 0.1174-3.0739-0.1116-6.1514-0.6826-9.1741 2.5619-0.5381 5.2532-1.9576 7.4205-2.5599z" fill="#D2D234"/>
<path d="m29.03 65.289c1.9164 0.4708 2.86-1.837 1.4898-2.9734-0.0799-0.0677-0.1734-0.1176-0.2742-0.1463-0.1007-0.0288-0.2064-0.0357-0.31-0.0204-0.3936-0.1947-0.8413-0.2429-1.2318-0.1194-1.5469 0.4779-1.5088 2.8108 0.3262 3.2595zm16.063-24.586c0.3262 0 0.6484-0.0783 0.9456-0.2129l3.0046 3.0136-0.0402 4e-3c-0.1989 0.0163-0.3832 0.1109-0.5123 0.263-0.1292 0.1521-0.1926 0.3493-0.1764 0.5481 0.0163 0.1989 0.1109 0.3832 0.263 0.5124 0.1521 0.1291 0.3493 0.1925 0.5481 0.1763l1.8883-0.1556c0.1958-0.016 0.3777-0.1078 0.5068-0.256 0.129-0.1481 0.195-0.3409 0.1839-0.5371l-0.1065-1.843c-0.0126-0.199-0.1031-0.3849-0.252-0.5176-0.1488-0.1327-0.3439-0.2013-0.543-0.1912-0.1994 0.0117-0.3859 0.102-0.5188 0.251s-0.2011 0.3448-0.1899 0.5441l8e-3 0.1305-2.9915-2.9985c0.1569-0.3208 0.237-0.6737 0.2342-1.0308-0.0028-0.3572-0.0885-0.7087-0.2502-1.0271l3.6681-3.7916 0.0019 0.0813c0.0048 0.1966 0.0862 0.3835 0.2269 0.5207 0.1407 0.1374 0.3294 0.2143 0.526 0.2142h0.0192c0.0988-0.0025 0.1963-0.0245 0.2866-0.0646 0.0904-0.0401 0.1721-0.0977 0.2402-0.1693 0.0682-0.0717 0.1215-0.1561 0.157-0.2485 0.0355-0.0923 0.0525-0.1908 0.0499-0.2897l-0.0481-1.8942c-5e-3 -0.1963-0.0865-0.383-0.2272-0.52-0.1406-0.1372-0.3293-0.2139-0.5257-0.2138h-1.8461c-0.1997 0-0.3912 0.0793-0.5324 0.2205s-0.2205 0.3327-0.2205 0.5324c0 0.1996 0.0793 0.3912 0.2205 0.5323 0.1412 0.1413 0.3327 0.2206 0.5324 0.2206h0.0873l-3.7022 3.8276c-0.4634-0.1946-0.98-0.2223-1.4617-0.0782-0.4778 0.1348-0.8995 0.4201-1.2022 0.8137-0.3028 0.3935-0.4705 0.8742-0.4782 1.3706-0.018 1.1525 0.9367 2.2628 2.2266 2.2628z" fill="#D2D234"/>
<path d="m48.836 23.046c-1.4356-0.2419-2.897-0.2912-4.3457-0.1466-3.9331 0.1486-7.4386 1.7698-10.419 4.8245-1.3326 1.3642-2.4001 2.964-3.1482 4.7182-0.6554 1.5525-1.0498 3.2026-1.1675 4.8837-0.276 3.8117 0.8433 7.4205 3.2385 10.434 0.4905 0.6086 1.0271 1.1784 1.6052 1.7046 1.0982 1.6453 2.7626 2.9824 4.5746 3.8427 9.0468 4.2945 20.133-1.2779 22.049-11.645 0.8673-4.6931-0.4337-9.7174-3.39-13.482-2.2849-2.9122-5.3275-4.5254-8.9966-5.1347zm-17.583 16.139h2.1343c0.1996 0 0.3911-0.0794 0.5323-0.2205 0.1412-0.1413 0.2205-0.3328 0.2205-0.5324 0-0.1997-0.0793-0.3912-0.2205-0.5324s-0.3327-0.2206-0.5323-0.2206h-2.1372c5e-3 -0.0822 0-0.1636 0.0069-0.2469 0.1075-1.5208 0.4618-3.0025 1.0511-4.4019 0.6142-1.4278 1.4643-2.7421 2.5146-3.8879l0.9697 0.9687c0.069 0.074 0.1521 0.1333 0.2444 0.1745 0.0924 0.0411 0.1922 0.0632 0.2932 0.065 0.1011 0.0018 0.2015-0.0168 0.2953-0.0546 0.0937-0.0379 0.1789-0.0943 0.2504-0.1658 0.0714-0.0715 0.1278-0.1566 0.1657-0.2504 0.0379-0.0937 0.0564-0.1942 0.0547-0.2952-0.0018-0.1011-0.0239-0.2009-0.0651-0.2932-0.0412-0.0924-0.1005-0.1755-0.1744-0.2444l-0.9688-0.9697c2.4866-2.2657 5.3315-3.4975 8.4776-3.6581v1.7969c0 0.1997 0.0794 0.3912 0.2205 0.5324 0.1413 0.1412 0.3327 0.2205 0.5324 0.2205s0.3912-0.0793 0.5324-0.2205 0.2205-0.3327 0.2205-0.5324v-1.7607c0.4588 0.0451 0.8944 0.1014 1.302 0.1857 2.6753 0.514 5.1879 1.82 7.1715 3.648l-0.4949 0.4938c-0.0719 0.0696-0.1292 0.1527-0.1685 0.2445-0.0395 0.092-0.0602 0.1908-0.061 0.2907-9e-4 0.1 0.0183 0.1991 0.0561 0.2916 0.0379 0.0925 0.0939 0.1766 0.1646 0.2472 0.0707 0.0707 0.1549 0.1265 0.2474 0.1644 0.0925 0.0378 0.1917 0.0567 0.2916 0.0559 0.1-9e-4 0.1988-0.0217 0.2907-0.0613 0.0918-0.0395 0.1748-0.0968 0.2443-0.1688l0.4787-0.4779c0.7305 0.8237 1.3569 1.734 1.8653 2.7105 0.8944 1.7165 1.3883 3.6439 1.5007 5.5994h-1.4204c-0.1997 0-0.3912 0.0794-0.5325 0.2206-0.1411 0.1412-0.2204 0.3327-0.2204 0.5324 0 0.1996 0.0793 0.3911 0.2204 0.5324 0.1413 0.1411 0.3328 0.2205 0.5325 0.2205h1.4375c-0.1074 2.4665-0.8252 4.9028-2.1382 6.9466-0.4357 0.6706-0.9517 1.3-1.5128 1.8943l-0.7349-0.7348c-0.0689-0.074-0.152-0.1333-0.2444-0.1744-0.0923-0.0412-0.192-0.0634-0.2932-0.0651-0.101-0.0018-0.2015 0.0168-0.2952 0.0547-0.0937 0.0378-0.1789 0.0942-0.2504 0.1657s-0.1279 0.1567-0.1657 0.2504-0.0565 0.1941-0.0546 0.2952c0.0017 0.1012 0.0238 0.2008 0.065 0.2932 0.0411 0.0924 0.1004 0.1755 0.1744 0.2444l0.7087 0.7097c-2.4734 2.1161-5.2652 3.1361-8.1643 3.2364v-1.2086c0-0.9968-1.5058-0.9968-1.5058 0v1.1815c-3.2484-0.2529-6.254-1.6864-8.5328-3.7122l2.2487-1.6312c0.1617-0.1173 0.2702-0.2941 0.3017-0.4913 0.0314-0.1974-0.0168-0.3991-0.1341-0.5608-0.1173-0.1618-0.294-0.2703-0.4913-0.3017-0.1973-0.0315-0.399 0.0167-0.5607 0.134l-2.3771 1.7237c-0.0232 0.017-0.0363 0.0431-0.0573 0.0622-0.2008-0.2209-0.4045-0.4407-0.5892-0.6726-1.7849-2.2466-2.7697-4.8607-2.9203-7.6393z" fill="#D2D234"/>
<path d="m26.79 32.654c0.1894 0.0629 0.3961 0.048 0.5746-0.0414 0.1783-0.0894 0.314-0.2461 0.3771-0.4354 2.374-7.1355 9.5497-12.562 17.062-12.903 7.3021-0.3213 14.754 4.184 17.914 10.796l-0.5964 0.3733c-0.7689 0.482-0.6725 1.6193 0.1557 1.9736 0.8562 0.3654 2.085 1.1334 2.6521 1.4376 0.0936 0.0498 0.1966 0.0793 0.3024 0.0866s0.2119-0.0079 0.3113-0.0445c0.0996-0.0366 0.1902-0.0937 0.2661-0.1678 0.0758-0.074 0.1353-0.1632 0.1743-0.2618 0.4125-1.044 0.271-2.3922 0.3915-3.5587 0.0963-0.9286-0.9115-1.5569-1.6995-1.064l-0.6736 0.4215c-3.4864-7.1594-11.256-11.883-19.267-11.494-8.2417 0.3724-15.818 6.1004-18.423 13.93-0.0629 0.1894-0.0481 0.3961 0.0414 0.5745 0.0894 0.1785 0.246 0.3142 0.4353 0.3772h0.0011zm36.43 3.9893c-0.2139 0.4708-0.2209 0.9898-0.0201 1.4255 0.4155 0.9025 1.7869 0.276 1.3672-0.6304-0.0131-0.0302-0.012-0.0964 0.0241-0.1747 0.2188-0.4879 1.1495-0.1827 1.2277 1.4124 0.0874 1.7899-0.8372 3.5908-2.2988 4.4852-0.1607 0.0973-0.2792 0.2511-0.3323 0.4313-0.0531 0.1801-0.0369 0.3736 0.0453 0.5424 0.0822 0.169 0.2246 0.301 0.3991 0.3703 0.1746 0.0692 0.3688 0.0707 0.5445 0.0042 1.2874-0.4802 2.6714-0.6444 4.0354-0.4788 0.1975 0.0217 0.3956-0.0344 0.5523-0.1564s0.2597-0.3004 0.287-0.4972c0.0247-0.198-0.0303-0.3978-0.1529-0.5553-0.1225-0.1576-0.3026-0.26-0.5006-0.2848-0.7096-0.0881-1.4264-0.0992-2.1383-0.0332 0.7329-1.1434 1.1304-2.5267 1.0641-3.901-0.1666-3.383-3.2565-3.8408-4.1037-1.9595zm7.1112 4.4119c0.6947-0.295 1.5742-0.6193 2.4896-0.7568-0.0642 0.8462-0.1606 1.6904-0.3061 2.5257-0.1737 0.9817 1.311 1.2407 1.4826 0.2609 0.3715-2.1261 0.495-4.2984 0.3645-6.4567-0.0197-0.1938-0.1136-0.3726-0.262-0.4987s-0.3399-0.1898-0.5343-0.1779c-0.1944 0.012-0.3767 0.0987-0.5085 0.242-0.132 0.1434-0.2033 0.3322-0.199 0.5269 0.0411 0.6817 0.0461 1.3642 0.0341 2.0458-0.74 0.088-1.4673 0.2614-2.1673 0.517l-0.2129-3.4512c-0.0642-1.0139-1.564-0.8895-1.5037 0.0923l0.2761 4.4843c0.0078 0.1201 0.0442 0.2368 0.1063 0.3399 0.062 0.1033 0.1479 0.1902 0.2503 0.2534 0.1026 0.0634 0.2187 0.1012 0.3388 0.1104 0.12 0.0092 0.2406-0.0104 0.3515-0.0573z" fill="#D2D234"/>
</svg>
