<?xml version="1.0" encoding="UTF-8"?>
<svg viewBox="0 0 100 101" xmlns="http://www.w3.org/2000/svg">
<rect y=".25" width="100" height="100" rx="50" fill="#FEEED5"/>
<path d="m28.845 57.292c-0.1192 0-0.2352-0.0392-0.3297-0.1119-0.0947-0.0726-0.1626-0.1743-0.1936-0.2895-0.0308-0.1151-0.0228-0.2373 0.0229-0.3475 0.0456-0.1101 0.1263-0.2021 0.2295-0.2617l18.747-10.825c0.1215-0.0692 0.265-0.0888 0.4005-0.0546 0.1356 0.0341 0.2527 0.1194 0.3269 0.2379 0.0742 0.1184 0.0996 0.2611 0.071 0.3979-0.0285 0.1369-0.1089 0.2573-0.2242 0.3364l-4.0084 2.7082c0.0884-0.0051 0.1765 0.0133 0.2555 0.0532 0.079 0.0401 0.1459 0.1001 0.1941 0.1743 0.0782 0.1099 0.1127 0.2448 0.0966 0.3787-0.016 0.1338-0.0813 0.2569-0.1832 0.3451l-5.5565 4.8045c0.0302 0.0329 0.0564 0.0693 0.078 0.1083 0.0719 0.1245 0.0914 0.2723 0.0542 0.411-0.0372 0.1389-0.128 0.2572-0.2524 0.3289l-2.6173 1.4973c-0.1165 0.0658-0.2533 0.086-0.384 0.057-0.1306-0.0291-0.2459-0.1054-0.3236-0.2144-0.0776-0.109-0.1121-0.2429-0.0969-0.3759s0.0791-0.2556 0.1794-0.3442l3.9-3.3693-7.3884 4.2651c-0.1213 0.0673-0.2639 0.0854-0.3982 0.0506s-0.2501-0.1197-0.3237-0.2375c-0.0734-0.1176-0.0989-0.259-0.0713-0.395 0.0277-0.1359 0.1065-0.2561 0.2202-0.3357l3.1958-2.1569-5.3452 3.0864c-0.0829 0.0505-0.1781 0.0776-0.2751 0.078zm28.614-10.93c-0.11-1e-4 -0.2175-0.0338-0.308-0.0965-0.0904-0.0628-0.1597-0.1516-0.1984-0.2547s-0.0451-0.2155-0.0183-0.3223 0.0855-0.2029 0.1683-0.2755l0.1333-0.117-0.338 0.194c-0.1169 0.0664-0.2544 0.087-0.3857 0.0577s-0.2469-0.1064-0.3245-0.2162c-0.0775-0.1099-0.1114-0.2447-0.0952-0.3782 0.0164-0.1335 0.0817-0.2561 0.1835-0.3441l0.4529-0.3857c-0.1118 0.0544-0.2388 0.0686-0.3598 0.0404-0.1211-0.0282-0.2287-0.0972-0.3049-0.1954-0.0762-0.0981-0.1163-0.2196-0.1136-0.3438 0.0026-0.1243 0.048-0.2438 0.1283-0.3386l1.7192-2.0464-4.94 2.8524c-0.1189 0.0683-0.2594 0.089-0.393 0.0577-0.1337-0.0313-0.2504-0.1121-0.3267-0.2261-0.0763-0.1141-0.1066-0.2528-0.0846-0.3882 0.022-0.1355 0.0946-0.2575 0.2031-0.3415l0.2578-0.1983-1.9099 1.0997c-0.0617 0.0391-0.1306 0.0655-0.2026 0.0773-0.0722 0.0119-0.1459 9e-3 -0.2169-0.0084-0.0709-0.0173-0.1376-0.0489-0.1961-0.0927-0.0584-0.0438-0.1074-0.099-0.1439-0.1622-0.0366-0.0634-0.06-0.1333-0.0688-0.2058s-0.0029-0.1461 0.0175-0.2163 0.0547-0.1355 0.101-0.192c0.0462-0.0566 0.1034-0.1032 0.1681-0.1371l9.0253-5.2118c0.1189-0.067 0.2588-0.0866 0.3916-0.0548 0.1327 0.0317 0.2485 0.1123 0.3244 0.2259 0.0759 0.1135 0.106 0.2514 0.0846 0.3862-0.0215 0.1347-0.093 0.2565-0.2005 0.3408l-0.2567 0.1982 0.4658-0.2687c0.1102-0.0628 0.2389-0.085 0.3637-0.0627s0.2378 0.0877 0.3193 0.1847c0.0816 0.097 0.1266 0.2196 0.127 0.3464 6e-4 0.1268-0.0434 0.2497-0.1242 0.3473l-1.7117 2.0487 2.4321-1.4084c0.117-0.0664 0.2544-0.087 0.3857-0.0577 0.1312 0.0293 0.2469 0.1063 0.3244 0.2162 0.0777 0.1099 0.1116 0.2447 0.0952 0.3782-0.0163 0.1335-0.0817 0.2561-0.1835 0.344l-0.442 0.377c0.1172-0.0615 0.253-0.0781 0.3815-0.0464 0.1286 0.0317 0.241 0.1093 0.3163 0.2182 0.0752 0.109 0.1079 0.2417 0.0919 0.3731-0.016 0.1315-0.0795 0.2525-0.1787 0.3403l-2.4039 2.1071c0.0574 0.1223 0.0671 0.2617 0.027 0.3908-0.04 0.1291-0.127 0.2386-0.2437 0.3068l-1.7409 1.0064c-0.0825 0.0506-0.1772 0.0775-0.2741 0.078zm-0.7973-7.8021c-0.1192 0-0.2352-0.0394-0.3297-0.1119-0.0946-0.0727-0.1626-0.1744-0.1935-0.2896-0.0308-0.1152-0.0228-0.2373 0.0228-0.3474 0.0456-0.1103 0.1263-0.2023 0.2296-0.2619l1.2306-0.7096c0.0617-0.0392 0.1307-0.0655 0.2027-0.0774 0.0721-0.0118 0.1459-9e-3 0.2168 0.0084 0.071 0.0175 0.1377 0.0489 0.1962 0.0928 0.0584 0.0438 0.1073 0.099 0.1439 0.1623 0.0366 0.0632 0.06 0.1332 0.0688 0.2057 0.0087 0.0726 0.0028 0.1461-0.0176 0.2163-0.0203 0.0701-0.0546 0.1355-0.1009 0.192-0.0462 0.0566-0.1034 0.1031-0.1682 0.137l-1.2307 0.7106c-0.0822 0.048-0.1757 0.0729-0.2708 0.0727z" fill="#FBB03B"/>
<path d="m37.094 50.928c-0.1149 1e-4 -0.2267-0.0363-0.3196-0.1039-0.0928-0.0676-0.1617-0.1629-0.1968-0.2723-0.0351-0.1093-0.0345-0.227 0.0017-0.336 0.0361-0.109 0.106-0.2037 0.1995-0.2704l6.2063-4.4308-0.65 0.3759c-0.1165 0.0668-0.2537 0.088-0.385 0.0593s-0.2472-0.1052-0.3252-0.2146c-0.0781-0.1094-0.1127-0.2438-0.0971-0.3773 0.0155-0.1335 0.0801-0.2564 0.1812-0.3449l4.6714-4.0701-0.012-0.0195c-0.0718-0.1244-0.0913-0.2722-0.0541-0.411s0.1279-0.2571 0.2523-0.3289l2.0833-1.2025c0.1164-0.0656 0.253-0.0858 0.3834-0.0569 0.1305 0.029 0.2456 0.1051 0.3233 0.2139 0.0777 0.1087 0.1125 0.2423 0.0975 0.3751-0.0148 0.1328-0.0782 0.2555-0.178 0.3443l-2.6357 2.2967 5.525-3.1883c0.1205-0.0707 0.2637-0.0921 0.3996-0.0597 0.1361 0.0324 0.2542 0.1161 0.3299 0.2336 0.0756 0.1175 0.103 0.2598 0.0763 0.3969-0.0268 0.1373-0.1055 0.2587-0.2198 0.3392l-6.2043 4.4298 9.2755-5.356c0.1244-0.0707 0.2717-0.0894 0.4097-0.0518 0.138 0.0374 0.2557 0.128 0.3272 0.2519 0.0715 0.1238 0.0912 0.2709 0.0546 0.4092-0.0366 0.1384-0.1264 0.2566-0.2497 0.3289l-19 10.968c-0.0824 0.0476-0.1758 0.0726-0.2709 0.0726zm-10.156 8.4717c-0.0738 4e-4 -0.1468-0.0145-0.2145-0.0439-0.0677-0.0292-0.1286-0.0722-0.1788-0.1262-0.0836-0.0885-0.135-0.2026-0.1458-0.3239s0.0196-0.2427 0.0862-0.3445l0.1084-0.1614-0.3673 0.2166c-0.1192 0.0679-0.2598 0.088-0.3933 0.0562-0.1335-0.0317-0.2499-0.1129-0.3259-0.2272-0.0759-0.1143-0.1056-0.2531-0.0831-0.3885 0.0225-0.1353 0.0955-0.2572 0.2043-0.3407l0.5753-0.4334-0.8212 0.4735c-0.1154 0.069-0.2524 0.0927-0.3843 0.0663s-0.2493-0.1008-0.3293-0.2089-0.1169-0.2422-0.1036-0.376c0.0134-0.1338 0.0761-0.258 0.1759-0.3481l1.7495-1.6564-2.275 1.3151c-0.1129 0.0646-0.2453 0.0862-0.3729 0.0611s-0.2419-0.0952-0.3221-0.1975c-0.0801-0.1024-0.1208-0.2302-0.1145-0.3601 0.0062-0.1299 0.059-0.2532 0.1487-0.3474l1.6976-1.7626-1.9977 1.1549c-0.1142 0.0658-0.2485 0.0878-0.3777 0.0617s-0.2445-0.0984-0.3242-0.2033c-0.0798-0.105-0.1185-0.2355-0.1089-0.367 0.0095-0.1315 0.0667-0.2549 0.1608-0.3473l2.6098-2.5469c-0.0194-0.0223-0.0365-0.0467-0.0509-0.0726-0.0719-0.1243-0.0913-0.2722-0.0542-0.411 0.0372-0.1387 0.128-0.257 0.2524-0.3289l1.7388-1.0042c0.1142-0.0659 0.2484-0.0879 0.3777-0.0618 0.1292 0.0261 0.2445 0.0984 0.3243 0.2034 0.0796 0.105 0.1184 0.2355 0.1088 0.3669-0.0096 0.1315-0.0668 0.255-0.1608 0.3473l-1.3 1.2643 1.5762-0.91c0.1131-0.0653 0.2459-0.0876 0.374-0.0627 0.1282 0.0249 0.243 0.0952 0.3236 0.1981 0.0804 0.1028 0.1209 0.2312 0.1142 0.3617-0.0067 0.1303-0.0604 0.2538-0.1509 0.3479l-1.6944 1.7636 2.977-1.7127c0.1154-0.0691 0.2524-0.0928 0.3843-0.0664s0.2493 0.1008 0.3292 0.209c0.0801 0.1081 0.117 0.2421 0.1037 0.3759-0.0134 0.1339-0.0761 0.258-0.1758 0.3481l-1.7496 1.6478 4.3593-2.5155c0.1192-0.0665 0.2591-0.0856 0.3917-0.0534 0.1327 0.0322 0.2483 0.1133 0.3237 0.2271s0.1051 0.2517 0.0832 0.3865c-0.022 0.1347-0.0941 0.2562-0.2017 0.34l-4.9952 3.7776c0.0191 0.0732 0.0227 0.1495 0.0106 0.2242-0.0121 0.0745-0.0397 0.1459-0.081 0.2092l-0.3716 0.5633c0.1081 0.0452 0.1982 0.1252 0.2556 0.2275 0.072 0.1243 0.0916 0.272 0.0546 0.4108-0.037 0.1387-0.1275 0.2571-0.2517 0.3291l-1.2307 0.7096c-0.0828 0.0458-0.1763 0.0686-0.2708 0.0661z" fill="#FBB03B"/>
<path d="m56.664 51.558c-0.1192 0-0.2352-0.0393-0.3297-0.1119-0.0947-0.0726-0.1626-0.1743-0.1936-0.2896-0.0308-0.1151-0.0228-0.2372 0.0228-0.3474 0.0457-0.1102 0.1264-0.2022 0.2296-0.2618l1.2264-0.7074c0.0617-0.0392 0.1306-0.0656 0.2026-0.0773 0.0722-0.0119 0.1459-0.0091 0.2168 0.0083 0.071 0.0174 0.1376 0.0489 0.1961 0.0928 0.0584 0.0438 0.1075 0.099 0.144 0.1622 0.0366 0.0632 0.06 0.1332 0.0688 0.2058 0.0088 0.0725 0.0029 0.146-0.0176 0.2162-0.0203 0.0701-0.0547 0.1355-0.1009 0.1921-0.0462 0.0565-0.1035 0.1031-0.1682 0.1369l-1.2263 0.7085c-0.0822 0.0478-0.1757 0.0729-0.2708 0.0726z" fill="#FBB03B"/>
<path d="m57.074 59.242c-0.1062 0-0.2102-0.0313-0.2988-0.09-0.0887-0.0586-0.1582-0.1421-0.1998-0.2399-0.0415-0.0977-0.0533-0.2056-0.034-0.3102 0.0192-0.1045 0.0689-0.201 0.1426-0.2775l1.9207-1.9944-1.8276 1.0551c-0.1131 0.0653-0.246 0.0875-0.3744 0.0625-0.1282-0.025-0.2431-0.0956-0.3234-0.1985-0.0804-0.1031-0.1208-0.2317-0.1137-0.3622 0.0069-0.1305 0.0609-0.254 0.1518-0.3479l1.3238-1.3574-3.4807 2.002c-0.1166 0.066-0.2537 0.0865-0.3845 0.0573-0.1309-0.0292-0.2462-0.1058-0.3238-0.2151s-0.112-0.2434-0.0964-0.3766c0.0156-0.1331 0.0799-0.2558 0.1807-0.3442l1.4734-1.2696-3.7268 2.1482c-0.1104 0.064-0.2399 0.0869-0.3656 0.0647s-0.2395-0.0881-0.3214-0.186-0.1266-0.2216-0.1261-0.3493c4e-4 -0.1277 0.0459-0.2511 0.1285-0.3484l1.625-1.9131-4.0203 2.3205c-0.1118 0.0636-0.2428 0.0852-0.3693 0.0611-0.1265-0.0242-0.2402-0.0926-0.3208-0.193-0.0806-0.1005-0.1228-0.2263-0.119-0.355s0.0533-0.2518 0.1396-0.3474l1.1592-1.262-1.7052 0.9913c-0.1084 0.062-0.235 0.0847-0.3583 0.0639-0.1232-0.0206-0.2356-0.0832-0.3179-0.1771-0.0824-0.094-0.1298-0.2136-0.134-0.3385-0.0043-0.1249 0.0347-0.2474 0.1104-0.3468l0.9642-1.2578-1.4722 0.8505c-0.1104 0.0633-0.2395 0.0858-0.3648 0.0635-0.1252-0.0223-0.2386-0.088-0.3203-0.1856-0.0818-0.0975-0.1264-0.2207-0.1263-0.348 0-0.1272 0.0449-0.2504 0.1266-0.3479l0.767-0.91-1.1482 0.663c-0.1112 0.0631-0.2411 0.0848-0.3667 0.0614-0.1257-0.0235-0.239-0.0906-0.3199-0.1896-0.0809-0.0989-0.1243-0.2232-0.1223-0.3511 0.0019-0.1278 0.049-0.2508 0.1329-0.3472l0.6293-0.7128-0.9478 0.5416c-0.1137 0.0625-0.246 0.0821-0.3729 0.0552-0.1268-0.0267-0.2399-0.0982-0.3186-0.2013-0.0786-0.103-0.1177-0.2309-0.1102-0.3604 0.0076-0.1294 0.0614-0.2518 0.1517-0.345l0.1147-0.1138-0.2719 0.156c-0.1098 0.0636-0.2384 0.0867-0.3635 0.0651-0.1251-0.0215-0.2386-0.0863-0.3208-0.1831-0.0822-0.0967-0.1278-0.2192-0.1288-0.3462-1e-3 -0.1269 0.0425-0.2501 0.123-0.3483l0.8385-1.0226-1.2599 0.7269c-0.1101 0.0635-0.2391 0.0862-0.3642 0.0642-0.1252-0.0221-0.2387-0.0874-0.3205-0.1846-0.0819-0.0973-0.1269-0.2202-0.1273-0.3473-4e-4 -0.1272 0.0439-0.2503 0.1252-0.3481l0.7962-0.9522-1.1916 0.6869c-0.1047 0.0616-0.2274 0.0858-0.3477 0.0684s-0.2311-0.0751-0.3142-0.1638c-0.0839-0.0877-0.1359-0.201-0.1477-0.3219-0.0118-0.1208 0.0173-0.242 0.0827-0.3444l1.158-1.8015-1.9001 1.0963c-0.1115 0.0637-0.242 0.0857-0.3682 0.0621-0.1263-0.0236-0.24-0.0913-0.3209-0.191-0.081-0.0997-0.1239-0.2249-0.1211-0.3532 0.0028-0.1284 0.0512-0.2517 0.1363-0.3477l0.5926-0.663-0.897 0.5178c-0.1053 0.0605-0.2279 0.0839-0.3481 0.0664-0.1202-0.0176-0.231-0.075-0.3147-0.1632-0.0835-0.0881-0.1352-0.2017-0.1464-0.3227s0.0186-0.2422 0.0845-0.3443l1.1494-1.7657-1.8753 1.0832c-0.1075 0.0623-0.2332 0.0857-0.3561 0.0662-0.1227-0.0194-0.2351-0.0805-0.3181-0.1729-0.0831-0.0925-0.1319-0.2107-0.1381-0.3349-0.0062-0.1241 0.0305-0.2467 0.1038-0.347l1.0411-1.4267-1.6163 0.9327c-0.106 0.0612-0.2297 0.0848-0.3507 0.0668-0.1211-0.0181-0.2326-0.0766-0.3161-0.1661-0.0836-0.0895-0.1344-0.2046-0.144-0.3266-0.0098-0.1221 0.0221-0.2439 0.0904-0.3455l1.1245-1.6715-4.1904 2.418c-0.1168 0.0672-0.2545 0.0886-0.3862 0.0597-0.1316-0.0288-0.2479-0.1057-0.3259-0.2157-0.078-0.1099-0.1122-0.245-0.0959-0.3789 0.0163-0.1338 0.082-0.2568 0.184-0.3448l0.5418-0.4625-2.3465 1.3541c-0.1244 0.0707-0.2716 0.0893-0.4097 0.0518-0.138-0.0374-0.2557-0.1279-0.3272-0.2518s-0.0911-0.2711-0.0546-0.4093c0.0366-0.1383 0.1264-0.2565 0.2497-0.3288l7.3483-4.2424c0.1169-0.0673 0.2546-0.0886 0.3863-0.0598 0.1316 0.0289 0.2479 0.1058 0.3259 0.2158 0.078 0.1099 0.1122 0.2451 0.0959 0.3789s-0.082 0.2567-0.1841 0.3447l-0.5417 0.4638 1.2102-0.6988c0.1059-0.0613 0.2296-0.0848 0.3507-0.0667 0.1211 0.018 0.2325 0.0765 0.3161 0.166 0.0835 0.0894 0.1343 0.2046 0.1441 0.3267 0.0097 0.122-0.0222 0.2437-0.0906 0.3453l-1.1245 1.6737 1.8059-1.0421c0.1077-0.0623 0.2334-0.0857 0.3561-0.0662 0.1229 0.0194 0.2352 0.0805 0.3183 0.173s0.1318 0.2107 0.138 0.3348c0.0063 0.1242-0.0304 0.2468-0.1039 0.347l-1.041 1.4279 1.6185-0.9339c0.1048-0.0586 0.2261-0.0807 0.3449-0.0629 0.1187 0.0178 0.2282 0.0745 0.3112 0.1614 0.083 0.0868 0.1348 0.1988 0.1472 0.3182 0.0124 0.1195-0.0152 0.2397-0.0785 0.3417l-1.1495 1.7659 1.8742-1.0834c0.1115-0.0644 0.2424-0.087 0.369-0.0636 0.1266 0.0233 0.2408 0.091 0.3221 0.1909 0.0812 0.0999 0.1242 0.2255 0.1213 0.3543-3e-3 0.1287-0.0517 0.2522-0.1375 0.3483l-0.5926 0.6619 0.8948-0.5168c0.1048-0.0617 0.2275-0.0858 0.3477-0.0684 0.1203 0.0172 0.2311 0.075 0.3142 0.1638 0.084 0.0876 0.1361 0.201 0.1479 0.3218 0.0117 0.1208-0.0174 0.2421-0.0829 0.3444l-1.158 1.8027 1.9001-1.0964c0.1102-0.0634 0.2392-0.0862 0.3643-0.0641 0.1252 0.022 0.2387 0.0873 0.3206 0.1846 0.0818 0.0972 0.1269 0.2201 0.1273 0.3472 3e-4 0.1271-0.044 0.2504-0.1253 0.348l-0.7941 0.9513 1.1916-0.6869c0.1099-0.0636 0.2386-0.0866 0.3637-0.0651 0.125 0.0216 0.2386 0.0865 0.3207 0.1831 0.0822 0.0968 0.1278 0.2194 0.1288 0.3462 0.0011 0.1269-0.0425 0.2502-0.1231 0.3483l-0.8396 1.0249 1.26-0.727c0.1137-0.0624 0.2459-0.082 0.3728-0.0553 0.1269 0.0269 0.2399 0.0983 0.3186 0.2014 0.0787 0.103 0.1178 0.2309 0.1102 0.3603-0.0077 0.1296-0.0614 0.252-0.1516 0.3451l-0.1137 0.1149 0.2718-0.1572c0.1114-0.0637 0.2417-0.0859 0.3678-0.0625s0.2398 0.0907 0.321 0.1899c0.081 0.0994 0.1243 0.2243 0.122 0.3525-0.0023 0.1283-0.0501 0.2515-0.1348 0.3479l-0.6251 0.715 0.9469-0.5418c0.1103-0.0626 0.2392-0.0846 0.3641-0.0621 0.1248 0.0227 0.2378 0.0883 0.3192 0.1857 0.0814 0.0973 0.1259 0.2202 0.126 0.3471 1e-4 0.127-0.0444 0.2498-0.1257 0.3473l-0.767 0.91 1.1494-0.663c0.1082-0.0631 0.2348-0.0868 0.3584-0.067 0.1237 0.0197 0.2367 0.0817 0.3197 0.1753 0.083 0.0942 0.1306 0.2144 0.1348 0.3399 0.0041 0.1255-0.0355 0.2485-0.112 0.3481l-0.9663 1.2587 2.4104-1.391c0.112-0.0636 0.2429-0.0853 0.3694-0.0611s0.2402 0.0926 0.3208 0.193 0.1228 0.2263 0.119 0.355c-0.0039 0.1287-0.0533 0.2518-0.1397 0.3474l-1.1591 1.262 3.6583-2.1125c0.1105-0.064 0.24-0.0869 0.3657-0.0647s0.2396 0.0881 0.3215 0.186c0.0818 0.0979 0.1265 0.2216 0.126 0.3493-4e-4 0.1277-0.0459 0.2511-0.1285 0.3484l-1.6195 1.91 6.0125-3.4668c0.1166-0.066 0.2536-0.0863 0.3845-0.0573 0.1308 0.0292 0.2461 0.1059 0.3238 0.2151 0.0776 0.1093 0.112 0.2436 0.0964 0.3766-0.0156 0.1332-0.08 0.2559-0.1807 0.3443l-1.4723 1.2686 1.886-1.0834c0.1132-0.0645 0.2458-0.0861 0.3736-0.0608 0.1279 0.0253 0.2422 0.0958 0.3222 0.1986 0.0801 0.1028 0.1204 0.2309 0.1135 0.361-0.0068 0.1301-0.0603 0.2534-0.1505 0.3473l-1.3283 1.3498 1.754-1.0118c0.1129-0.0645 0.2452-0.0862 0.3729-0.0611 0.1276 0.025 0.2419 0.0952 0.3221 0.1975 0.0802 0.1024 0.1209 0.2302 0.1145 0.3601-0.0062 0.1299-0.059 0.2532-0.1487 0.3474l-2.094 2.1743c0.0972-0.0085 0.1947 0.0129 0.2795 0.0612 0.0847 0.0484 0.1528 0.1215 0.195 0.2096 0.0715 0.1243 0.0907 0.2719 0.0535 0.4104-0.0371 0.1385-0.1277 0.2566-0.2518 0.3284l-2.8827 1.664c-0.0818 0.0496-0.1754 0.0761-0.2709 0.077z" fill="#FBB03B"/>
<path d="m26.431 46.127c-0.1137 0-0.2245-0.0358-0.3167-0.1022-0.0922-0.0665-0.1612-0.1603-0.1971-0.2682-0.036-0.1078-0.0371-0.2243-0.0032-0.3327 0.0339-0.1086 0.1011-0.2037 0.192-0.2719l0.9913-0.7453-1.3098 0.7583c-0.1166 0.068-0.2543 0.0899-0.3862 0.0616-0.132-0.0284-0.2486-0.1049-0.327-0.2146-0.0785-0.1098-0.1132-0.2449-0.0973-0.3789s0.0813-0.2572 0.1833-0.3456l1.82-1.5881-2.3043 1.3292c-0.1115 0.0644-0.2423 0.0869-0.369 0.0636-0.1266-0.0233-0.2408-0.091-0.322-0.1909-0.0813-0.0999-0.1243-0.2256-0.1213-0.3543 0.0029-0.1288 0.0517-0.2522 0.1374-0.3483l1.6662-1.8633-2.2501 1.3c-0.1112 0.0645-0.2417 0.0873-0.3682 0.0643-0.1264-0.0228-0.2407-0.09-0.3222-0.1893-0.0815-0.0995-0.125-0.2245-0.1228-0.3531 0.0022-0.1285 0.0501-0.252 0.135-0.3484l2.6239-2.9901c-0.0816-0.0468-0.1492-0.1145-0.1961-0.1961-0.0718-0.1244-0.0913-0.2722-0.0541-0.4109 0.0372-0.1389 0.1279-0.2572 0.2523-0.329l1.7388-1.0042c0.1112-0.0644 0.2417-0.0873 0.3682-0.0644 0.1264 0.023 0.2406 0.0901 0.3222 0.1895 0.0815 0.0993 0.1251 0.2244 0.1228 0.3529-0.0022 0.1285-0.0501 0.2521-0.1351 0.3485l-2.0583 2.3509 2.3346-1.3476c0.1114-0.0638 0.2418-0.0859 0.368-0.0624 0.1262 0.0234 0.2399 0.091 0.3209 0.1905s0.1241 0.2245 0.1215 0.3528c-0.0025 0.1284-0.0505 0.2516-0.1355 0.3478l-1.6705 1.8633 4.1968-2.4169c0.1165-0.0666 0.2535-0.0877 0.3845-0.0591 0.1312 0.0287 0.2469 0.105 0.325 0.2141 0.078 0.109 0.1129 0.2432 0.0977 0.3765s-0.0793 0.2562-0.1799 0.3449l-1.8189 1.5838 4.2683-2.4635c0.1194-0.0669 0.2596-0.0862 0.3926-0.054s0.2489 0.1136 0.3244 0.2277c0.0755 0.1142 0.1049 0.2526 0.0825 0.3877-0.0225 0.135-0.0952 0.2564-0.2037 0.34l-6.0861 4.5706c0.0099 0.1035-0.0101 0.2076-0.0578 0.3-0.0476 0.0924-0.1208 0.1691-0.2109 0.221l-1.872 1.0834c-0.0833 0.0477-0.178 0.0721-0.2741 0.0704z" fill="#FBB03B"/>
<path d="m56.808 68.743c-0.0043 0.0313-0.0043 0.0629 0 0.0942-0.0014 0.5301 0.0435 1.0594 0.1344 1.5817 0.4324 2.1323 1.5914 4.0484 3.2793 5.4213 1.6879 1.373 3.7999 2.1175 5.9755 2.1068 1.9179-0.0179 3.7874-0.6039 5.3726-1.6836 1.585-1.0798 2.8147-2.6049 3.5336-4.3831 0.391-1.0386 0.5875-2.1402 0.5795-3.25 0.0249-0.0705 0.0225-0.1477-0.0065-0.2167-0.0241-1.3345-0.3377-2.648-0.9189-3.8495-0.5814-1.2015-1.4167-2.2626-2.4481-3.1098-1.524-1.1997-3.3742-1.9122-5.3092-2.0445-1.935-0.1324-3.865 0.3215-5.5382 1.3024-1.4006 0.8257-2.5647 1.9985-3.3799 3.4052-0.8153 1.4067-1.2541 2.9998-1.2741 4.6256zm14.659-5.9909-1.1495 1.1473-0.1906 0.1917c-0.0189 0.0161-0.0344 0.0358-0.0453 0.058-0.0111 0.0222-0.0174 0.0465-0.0188 0.0712-0.0013 0.0248 0.0025 0.0495 0.0111 0.0728 0.0086 0.0232 0.0218 0.0445 0.0389 0.0624 0.1228 0.0764 0.268 0.1088 0.4117 0.0921 0.3847-0.0034 0.7553-0.1457 1.0433-0.4009l0.5882-0.5882c1.1137 1.331 1.7824 2.9775 1.912 4.7081h-1.0259c-0.2119-0.0063-0.4226 0.0336-0.6175 0.117-0.1682 0.0668-0.3121 0.1832-0.4127 0.3337-0.0371 0.0554-0.0557 0.121-0.0532 0.1875 0.0026 0.0666 0.0261 0.1307 0.0673 0.183 0.1156 0.1134 0.2713 0.1766 0.4333 0.1755h1.625c-0.0095 0.3265-0.0387 0.6521-0.0878 0.975-0.2196 1.3273-0.7795 2.5751-1.625 3.6216l-0.5957-0.598-0.1918-0.1907c-0.1223-0.0801-0.2684-0.116-0.4139-0.1018-0.2105 0.0053-0.4183 0.0491-0.6131 0.1289-0.165 0.0529-0.3127 0.149-0.428 0.2784-0.0617 0.0889-0.1007 0.1864-0.0107 0.2763l1.2522 1.2523c-1.2214 1.0481-2.7327 1.6998-4.3332 1.8688v-1.7182c0-0.1181-0.2254-0.1831-0.299-0.1972-0.1953-0.0297-0.3948-0.0157-0.584 0.0412-0.1921 0.0445-0.3718 0.1319-0.5254 0.2557l-0.1029 0.1083c-0.0259 0.0291-0.0447 0.0638-0.0546 0.1015s-0.011 0.0771-0.0029 0.1152v1.262c-1.6619-0.2123-3.2165-0.9374-4.447-2.0745l1.158-1.1581 0.1908-0.1907c0.066-0.0661 0.1082-0.156 0.0237-0.2264-0.1247-0.0617-0.2655-0.0832-0.403-0.0618-0.2095 0.0151-0.4157 0.0608-0.612 0.1355-0.1598 0.0523-0.3073 0.1367-0.4334 0.248l-0.572 0.572c-0.6549-0.7452-1.1651-1.606-1.5047-2.5382-0.2418-0.6993-0.3876-1.4282-0.4334-2.1667h1.0325c0.2113 0.0071 0.4218-0.0321 0.6164-0.1148 0.1692-0.0678 0.3134-0.1862 0.4127-0.3391 0.0364-0.0573 0.0544-0.1245 0.0513-0.1923-0.0032-0.0678-0.0271-0.1331-0.0686-0.1869-0.0568-0.0571-0.1243-0.1025-0.1986-0.1335-0.0744-0.0311-0.1542-0.0472-0.2347-0.0474h-1.6185c0.0827-1.6592 0.6722-3.2533 1.6889-4.5673l0.6272 0.6272 0.1907 0.1918c0.1164 0.1237 0.274 0.2008 0.4431 0.2167 0.2123 0.021 0.4261-0.0164 0.6186-0.1084 0.1724-0.0723 0.3155-0.2005 0.4063-0.364 0.0364-0.0653 0.0531-0.1397 0.0481-0.2143s-0.0315-0.1461-0.0764-0.206l-1.2327-1.2328c0.0346-0.0293 0.0617-0.065 0.0963-0.0943 1.2001-0.9917 2.674-1.594 4.225-1.7268v1.7008c0 0.0899 0.2427 0.0986 0.273 0.0997 0.1937 9e-4 0.3865-0.0269 0.572-0.0824 0.1908-0.0435 0.3735-0.1167 0.5417-0.2166 0.0812-0.0531 0.1863-0.1084 0.1863-0.2221v-1.2773c1.1548 0.1227 2.2664 0.5073 3.25 1.1245 0.4218 0.2748 0.8171 0.5882 1.1809 0.936z" fill="#FBB03B"/>
<path d="m17.799 53.483v8.8649c-0.1589 1.4357-0.103 2.887 0.1657 4.3062 0.8266 2.4841 3.302 2.3433 5.3972 2.3433h29.13c0.0246 2.3495 0.6693 4.6508 1.8688 6.6712 1.5821 2.5432 3.9439 4.5068 6.7331 5.5982 2.7894 1.0912 5.8566 1.2516 8.7446 0.4571 2.8878-0.7944 5.4415-2.5011 7.2802-4.8654s2.8638-5.2597 2.9225-8.2544c-0.0022-3.4931-1.3586-6.8494-3.7843-9.363-2.4256-2.5138-5.7314-3.989-9.2222-4.1157v-14.842c0-5.3755 0.2243-10.803 0-16.174-0.1083-2.5263-2.132-3.4461-4.3333-3.4461h-3.2359v-1.8785c-0.0067-0.0877-0.0319-0.1729-0.0737-0.2502-0.042-0.0773-0.0998-0.1449-0.1697-0.1983-0.0698-0.0534-0.1501-0.0914-0.2358-0.1116-0.0856-0.0201-0.1744-0.022-0.2608-0.0054-0.325 0.0303-0.8569 0.2568-0.8569 0.663v1.7929h-4.9161v-1.9359c0-0.3456-0.4041-0.3943-0.6825-0.3553-0.2106 0.023-0.4134 0.0925-0.5937 0.2036-0.1083 0.0705-0.2947 0.1983-0.2947 0.3402v1.7474h-4.9302v-2.0518c0-0.0899-0.2427-0.0997-0.273-0.1008-0.1941-8e-4 -0.3871 0.0269-0.5731 0.0824-0.1831 0.0509-0.7226 0.1776-0.7226 0.4333v1.6369h-4.9313v-2.0518c0-0.1224-0.2243-0.1961-0.3034-0.2167-0.195-0.0341-0.3953-0.0222-0.585 0.0347-0.2914 0.0856-0.6803 0.2481-0.6803 0.598v1.6358h-4.9237v-1.9131c0-0.3705-0.3879-0.4995-0.7107-0.4615-0.2795 0.0325-0.8732 0.2275-0.8732 0.6045v1.7701h-4.9118v-1.898c-0.0077-0.0851-0.0337-0.1676-0.0758-0.2419-0.0423-0.0743-0.0998-0.1387-0.169-0.189-0.0691-0.0502-0.1482-0.0852-0.2319-0.1024s-0.1701-0.0164-0.2535 0.0025c-0.3098 0.0314-0.8667 0.247-0.8667 0.6435v1.7756c-1.1844-0.0531-2.3708-0.0445-3.5544 0.026-0.9569 0.0231-1.8766 0.3753-2.6041 0.9973-0.7276 0.6219-1.2185 1.4757-1.3901 2.4173-0.0278 0.4158-0.034 0.8327-0.0184 1.2491v28.128zm4.901 14.859c-2.3379-0.0466-3.3324-1.7518-3.3324-3.8589v-26.779c0-2.8936-0.065-5.8023-0.0704-8.7056h46.168v26.157c-1.1953 0.0839-2.3756 0.3168-3.5132 0.6934 0.2471-0.2567 0.4545-0.5487 0.6153-0.8666 0.5861-1.2557-1.2209-2.5058-1.9684-3.2685-0.8396-0.858-1.534-1.937-2.8719-1.7442-0.2719 0.0048-0.5402 0.0641-0.7888 0.1745-0.2485 0.1104-0.4724 0.2696-0.6583 0.4681s-0.3301 0.4324-0.4239 0.6877c-0.0939 0.2553-0.1355 0.5268-0.1223 0.7985h-4.3626c-0.2922 0.0252-0.586 0.0269-0.8786 0.0054-0.0181-0.035-0.0431-0.066-0.0737-0.091-0.416-0.3998-0.8168-0.8158-1.2241-1.223l-2.8871-2.885 3.8393-3.8393h5.5662c-0.0098 0.6413-0.0845 1.3574 0.4517 1.8178 0.3687 0.2266 0.792 0.3485 1.2246 0.3527 0.4327 0.0041 0.8584-0.1095 1.2313-0.3289 0.4823-0.2838 0.9107-0.6505 1.2654-1.0833l1.7333-1.7723c0.4556-0.3516 0.8124-0.8152 1.0357-1.3455 0.169-0.7064-0.26-1.156-0.7064-1.612l-1.742-1.781c-0.3363-0.4066-0.7107-0.7803-1.118-1.1159-0.4282-0.2067-0.9048-0.2921-1.3781-0.2469-0.4734 0.0454-0.9251 0.2196-1.3064 0.5037-0.2508 0.1883-0.447 0.44-0.5685 0.7292-0.1214 0.2892-0.1638 0.6054-0.1226 0.9164h-5.7254c-1.2072-0.1013-2.4059 0.2749-3.3389 1.0475-0.8201 0.7693-1.5946 1.5948-2.3898 2.3899l-1.6618 1.6629-3.0529-3.0495c-0.9598-0.9599-1.7268-1.9869-3.198-2.0498-2.0583-0.0877-4.1491 0-6.2151 0-0.3472 0.0283-0.696 0.0283-1.0432 0h-0.0076c0.0499-0.197 0.0624-0.4017 0.0368-0.6034-0.0422-1.209-0.8818-1.6953-2.0236-1.5068-1.7496 0.2892-3.2121 2.3572-4.3334 3.5857-0.1708 0.1362-0.3101 0.3077-0.4081 0.5029s-0.1525 0.4094-0.1596 0.6277 0.0333 0.4356 0.1184 0.6367c0.0851 0.2012 0.2129 0.3814 0.3746 0.5283 0.7951 0.8884 1.6748 1.7128 2.5079 2.5643 0.3055 0.3666 0.7228 0.6229 1.188 0.7295 0.4651 0.1067 0.9524 0.0578 1.3871-0.1391 0.4169-0.1187 0.7789-0.3801 1.0228-0.7384 0.2439-0.3584 0.3543-0.791 0.3119-1.2224h4.2564c0.2762 0 0.5525 0.0065 0.8287 0 0.054-0.0018 0.108 1e-3 0.1614 0.0086 0.4644 0.3965 0.8946 0.8314 1.286 1.3l2.8643 2.8622-3.8058 3.8057h-5.5737c0.062-0.3121 0.0531-0.6342-0.026-0.9425-0.0792-0.3082-0.2265-0.5947-0.4312-0.8385-0.3631-0.2433-0.7879-0.3788-1.2249-0.3905s-0.8684 0.1008-1.244 0.3245c-0.4755 0.3011-0.9 0.6759-1.2578 1.1104l-1.7333 1.7724c-0.4591 0.3538-0.8149 0.8245-1.0302 1.3627-0.169 0.7194 0.26 1.1841 0.716 1.651l1.742 1.781c0.339 0.4043 0.7131 0.7777 1.118 1.1159 0.4267 0.23 0.9116 0.3296 1.3944 0.2866 0.4829-0.0432 0.9424-0.2273 1.3216-0.5292 0.2361-0.1948 0.4198-0.4454 0.5343-0.7292 0.1145-0.2839 0.1561-0.5918 0.1211-0.8958h3.0582c1.4611 0.137 2.9336 0.0908 4.3832-0.1377 1.4625-0.3932 2.5296-1.8286 3.5588-2.8578l2.1385-2.1385 3.0333 3.0268c0.4463 0.4464 0.8742 0.9458 1.3563 1.3564 0.9664 0.82 2.0854 0.6933 3.2652 0.6933h5.1772c0.2164-0.0165 0.4335-0.0182 0.65-0.0054-0.0188 0.1244-0.0293 0.2501-0.0314 0.3759-0.084 0.3335-0.0421 0.6863 0.1179 0.9907 0.1599 0.3045 0.4265 0.5392 0.7488 0.6593-0.3001 0.2902-0.5904 0.5903-0.8667 0.91-1.9843 2.3366-3.1172 5.2775-3.2131 8.3416-9.9255 0.0206-19.872 0.1982-29.797 0.0065zm34.866-10.118c-0.2683-0.5176-0.3668-1.1066-0.2817-1.6835 0-0.091-0.2416-0.1082-0.2741-0.1082-2.3584 0-4.7374 0.1017-7.0926 0-1.7831-0.077-2.8686-1.6684-4.0549-2.8525l-2.6823-2.679c-0.0068-9e-3 -0.0149-0.0171-0.0238-0.0239l-3.73-3.7266-2.6-2.6c-0.286-0.285-0.689-0.8873-1.0638-1.0618-0.3247-0.0814-0.6621-0.0987-0.9934-0.0509h-5.9258c-0.2774 0-1.3 0.1203-1.3 0.5265 0 0.2633 0.0216 0.5352 0 0.7974-0.0412 0.4918-0.0217 0.7713-0.4919 0.5416-0.2957-0.1473-0.5904-0.6033-0.8212-0.8385-0.7182-0.7345-2.6487-2.0832-2.471-3.2261 0.1679-1.0757 1.7929-2.184 2.523-2.9315 0.2384-0.2437 0.5851-0.7107 0.7746-0.6555 0.6316 0.182 0.4865 1.5168 0.4865 1.9836 0 0.091 0.2415 0.1084 0.274 0.1084 2.3585 0 4.7375-0.1019 7.0926 0 1.7832 0.0769 2.8687 1.6683 4.0549 2.8524l6.4361 6.4306 2.6 2.6c0.286 0.285 0.689 0.8873 1.0639 1.0618 0.3246 0.0814 0.6621 0.0987 0.9934 0.0508h5.9204c0.2773 0 1.2946-0.1202 1.2946-0.5265 0-0.2426-0.1084-1.3206 0.1267-1.4603 0.2167-0.1289 0.4193 0.194 0.5731 0.3412 0.7583 0.715 1.4582 1.4885 2.1851 2.2306 0.7269 0.7422 1.3585 1.4084 0.4637 2.4159-0.3749 0.4214-0.7768 0.8211-1.1798 1.2198-0.6587 0.3698-1.2862 0.7926-1.8763 1.2642zm-28.908-1.847c-0.3077 0-1.1082 0.1668-1.1082 0.5839 0 0.2849 0.0238 0.5785 0 0.8612-0.0141 0.1572 0.0086 0.4464-0.1365 0.5569-0.1983 0.1528-0.1084 0.0683-0.3651-0.1083-0.3445-0.2933-0.6615-0.6176-0.9469-0.9686l-1.4993-1.5263c-0.4117-0.4215-0.9512-0.8255-0.8667-1.4832 0.0694-0.5492 0.5969-0.9403 0.9642-1.3162l1.5058-1.5449c0.1972-0.2015 0.3911-0.4084 0.5926-0.6055 0.0369-0.0369 0.1192-0.1625 0.1744-0.1787 0.1799-0.0543-0.066 0.0216 0 0.0357 0.7486 0.1711 0.5807 1.4018 0.5807 1.95 0 0.1679 0.3727 0.1635 0.4604 0.1635h3.4364c1.1144 0.0596 2.2313 0.0564 3.3453-0.0097 1.1072-0.1278 1.9782-1.4213 2.7083-2.1515l1.6976-1.6975c0.7901 0.7871 1.5792 1.5755 2.3671 2.3648l-4.2575 4.2575c-0.312 0.312-0.6305 0.7443-1.0833 0.8277-0.4373 0.0374-0.877 0.0374-1.3141 0h-6.2552v-0.0108zm27.332-16.642c0.2784 0 1.2946-0.1192 1.2946-0.5275 0-0.3023-0.0238-0.6154 0-0.9155 0.0297-0.198 0.0791-0.3924 0.1473-0.5807l0.0271-0.026c0.0423 0.0142 0.0867 0.0282 0.1506 0.0444 0.3152 0.3413 0.6717 0.6598 0.9977 0.9935l1.6185 1.6543c0.4334 0.4387 0.949 0.8265 0.8765 1.5112-0.0607 0.5763-0.572 0.949-0.9566 1.3423l-1.625 1.6596c-0.2008 0.1656-0.3825 0.3531-0.5417 0.559-0.0275 0.0407-0.0607 0.0772-0.0986 0.1084-0.0288-0.0272-0.0549-0.0569-0.078-0.0889-0.2676-0.3694-0.4777-0.5233-0.5146-1.0129-0.0216-0.3012 0-0.6132 0-0.9155 0-0.091-0.2405-0.1082-0.274-0.1082h-3.4396c-1.1224 0-2.2967-0.1019-3.4158 0-1.2036 0.1158-2.0215 1.3443-2.8166 2.1362l-1.6846 1.6835c-0.8046-0.8023-1.6088-1.6058-2.4126-2.4104l2.4992-2.4992 1.7659-1.7669c0.2231-0.2167 0.6121-0.741 0.9197-0.8472 0.433-0.0613 0.8724-0.0613 1.3054 0h6.253l0.0022 0.0065zm1.8969 5.8348c0.1809 0.1702 0.1939-0.0921 0 0zm20.568 23.161c0.0042 2.5164-0.7529 4.9753-2.1719 7.0536-1.4189 2.0783-3.4335 3.6787-5.7787 4.5911-2.4207 0.8516-5.0472 0.9243-7.5113 0.2077-2.464-0.7165-4.6421-2.1862-6.2286-4.2031-1.5387-1.9663-2.464-4.3423-2.6605-6.8314-0.1965-2.4889 0.3445-4.9807 1.5555-7.1642 1.245-2.2041 3.1511-3.9615 5.4489-5.0239 2.2979-1.0623 4.8714-1.3759 7.3572-0.8965 2.8093 0.609 5.3281 2.1547 7.1433 4.3836 1.8151 2.2289 2.8187 5.0087 2.8461 7.8831zm-59.088-44.576c-0.0505-0.6436 0.1333-1.2837 0.5175-1.8025 0.3843-0.5188 0.943-0.8813 1.5734-1.0207 0.5256-0.033 1.0528-0.033 1.5784 0h2.3335v1.8926c0.0077 0.0851 0.0336 0.1676 0.0758 0.2419s0.0998 0.1388 0.169 0.189c0.0691 0.0503 0.1481 0.0852 0.2319 0.1024 0.0837 0.0173 0.1701 0.0164 0.2534-0.0024 0.3099-0.0315 0.8667-0.247 0.8667-0.6435v-1.78h4.9119v1.9078c0 0.3705 0.3878 0.4994 0.7106 0.4615 0.2795-0.0325 0.8732-0.2275 0.8732-0.6045v-1.7648h4.9237v2.0465c0 0.1224 0.2243 0.196 0.3034 0.2166 0.195 0.0341 0.3953 0.0223 0.585-0.0346 0.2914-0.0856 0.6803-0.2481 0.6803-0.598v-1.625h4.9313v2.041c0 0.0899 0.2427 0.0996 0.273 0.1007 0.1941 9e-4 0.3871-0.0269 0.5731-0.0823 0.1831-0.0509 0.7226-0.1777 0.7226-0.4388v-1.625h4.9303v1.9294c0 0.3456 0.404 0.3944 0.6825 0.3554 0.2105-0.023 0.4133-0.0926 0.5936-0.2037 0.1084-0.0704 0.2947-0.1982 0.2947-0.3402v-1.742h4.9162v1.885c0.0066 0.0877 0.0317 0.173 0.0736 0.2503 0.042 0.0773 0.0998 0.1448 0.1697 0.1982 0.0698 0.0534 0.1501 0.0914 0.2357 0.1116 0.0857 0.0202 0.1745 0.022 0.2609 0.0054 0.325-0.0303 0.8569-0.2567 0.8569-0.663v-1.7875h0.0542c1.3 0 3.2088-0.2957 4.382 0.3846 1.9663 1.1375 1.5644 3.6249 1.5644 5.5423v0.9111h-46.174c0.0033-1.34 0.0206-2.679 0.0715-4.0148z" fill="#FBB03B"/>
<path d="m67.016 66.148c-0.1697 0.0618-0.3157 0.1755-0.417 0.325l-1.0834 2.1667c-0.0366 0.0507-0.0558 0.112-0.0544 0.1746 0.0013 0.0626 0.0232 0.123 0.0621 0.1721l1.0832 1.0833c0.154 0.1014 0.3328 0.1584 0.5171 0.1649 0.1842 0.0065 0.3666-0.0377 0.5273-0.1281 0.1906-0.0899 0.6727-0.404 0.4095-0.6673l-0.9631-0.962c0.3243-0.65 0.6493-1.2971 0.975-1.9413 0.0364-0.0508 0.0553-0.1121 0.0539-0.1746s-0.0229-0.1229-0.0614-0.1721c-0.1195-0.105-0.2744-0.1607-0.4334-0.156-0.2112-0.0083-0.4214 0.0309-0.6154 0.1148z" fill="#FBB03B"/>
</svg>
